/* XPM */
static char *_5b1c75487334337d5e84f21edc70ec8D4xCMOxHIiK2Awtm[] = {
/* columns rows colors chars-per-pixel */
"85 85 245 2 ",
"   c #0C0B0A",
".  c #150B0C",
"X  c #14120E",
"o  c #151514",
"O  c #1A1515",
"+  c #161A1A",
"@  c #1A1A1A",
"#  c #181818",
"$  c #111010",
"%  c #27030C",
"&  c #2A0A12",
"*  c #340A15",
"=  c #251C1B",
"-  c #38121A",
";  c #26211E",
":  c #1E1D20",
">  c #261E22",
",  c #3C1927",
"<  c #1D2122",
"1  c #242223",
"2  c #2C2524",
"3  c #2C272A",
"4  c #332926",
"5  c #352B2A",
"6  c #3B2D2C",
"7  c #332627",
"8  c #3B312E",
"9  c #3A2E33",
"0  c #382D34",
"q  c #3D3332",
"w  c #3C343A",
"e  c #3B3738",
"r  c #1F211E",
"t  c #450F1B",
"y  c #471927",
"u  c #55192B",
"i  c #52152A",
"p  c #6B1C30",
"a  c #432D2D",
"s  c #48292C",
"d  c #44332D",
"f  c #4C332E",
"g  c #44342A",
"h  c #4B2D32",
"j  c #452B35",
"k  c #572934",
"l  c #433434",
"z  c #4C3533",
"x  c #443935",
"c  c #4C3A35",
"v  c #42353B",
"b  c #4C3539",
"n  c #453B3B",
"m  c #4B3C3B",
"M  c #533533",
"N  c #533B35",
"B  c #53353A",
"V  c #533C3B",
"C  c #5A3C3B",
"Z  c #5A3736",
"A  c #522F2F",
"S  c #682B37",
"D  c #65363C",
"F  c #742E3C",
"G  c #4B413D",
"H  c #4A4138",
"J  c #55423C",
"K  c #5B433C",
"L  c #574439",
"P  c #61463D",
"I  c #3E3941",
"U  c #453B43",
"Y  c #4B3C44",
"T  c #4C3D49",
"R  c #463642",
"E  c #533E42",
"W  c #553E47",
"Q  c #683943",
"!  c #763945",
"~  c #6E2C45",
"^  c #464142",
"/  c #4C4443",
"(  c #4C444C",
")  c #4D484D",
"_  c #4C4745",
"`  c #534444",
"'  c #5A4444",
"]  c #534946",
"[  c #5C4B45",
"{  c #53444B",
"}  c #554B4B",
"|  c #5B4C4B",
" . c #5B4549",
".. c #5C514D",
"X. c #57524A",
"o. c #4D4A53",
"O. c #4C4651",
"+. c #534D53",
"@. c #5A4C53",
"#. c #544E5A",
"$. c #574955",
"%. c #555254",
"&. c #5C5253",
"*. c #55525B",
"=. c #5B545C",
"-. c #5D595D",
";. c #4F5155",
":. c #624543",
">. c #634944",
",. c #634D4C",
"<. c #6A4C4C",
"1. c #674749",
"2. c #74494B",
"3. c #64524D",
"4. c #6C524D",
"5. c #68574C",
"6. c #74554D",
"7. c #664D54",
"8. c #774757",
"9. c #645453",
"0. c #6B5554",
"q. c #645955",
"w. c #6C5A54",
"e. c #62545B",
"r. c #6B5659",
"t. c #645A5B",
"y. c #6C5B5B",
"u. c #735453",
"i. c #745B56",
"p. c #7B5D56",
"a. c #745C5A",
"s. c #7B5D5A",
"d. c #76565A",
"f. c #6E615C",
"g. c #74615B",
"h. c #7C625C",
"j. c #736155",
"k. c #5B5662",
"l. c #5D5A63",
"z. c #575662",
"x. c #645C64",
"c. c #6B5C63",
"v. c #645D69",
"b. c #685A66",
"n. c #745C62",
"m. c #785B64",
"M. c #6C6164",
"N. c #65626B",
"B. c #6C636C",
"V. c #676468",
"C. c #746364",
"Z. c #7B6364",
"A. c #73646B",
"S. c #7A656B",
"D. c #7D6A6C",
"F. c #756968",
"G. c #6B6571",
"H. c #6C6A73",
"J. c #6B6875",
"K. c #736C74",
"L. c #7C6C73",
"P. c #766A76",
"I. c #75727B",
"U. c #7A737C",
"Y. c #787478",
"T. c #787372",
"R. c #863A4B",
"E. c #873D53",
"W. c #84424D",
"Q. c #884554",
"!. c #96495A",
"~. c #835D5B",
"^. c #835958",
"/. c #92575D",
"(. c #A54A5B",
"). c #84645C",
"_. c #8B655D",
"`. c #88685E",
"'. c #91695F",
"]. c #935866",
"[. c #A85568",
"{. c #B85C71",
"}. c #846463",
"|. c #8C6562",
" X c #856965",
".X c #8B6A64",
"XX c #846B6C",
"oX c #8C6C6B",
"OX c #856669",
"+X c #936C6C",
"@X c #926965",
"#X c #8D716D",
"$X c #86736D",
"%X c #93736D",
"&X c #876D75",
"*X c #966D75",
"=X c #857373",
"-X c #8C7375",
";X c #85737D",
":X c #8C757B",
">X c #8B7A79",
",X c #937474",
"<X c #92767A",
"1X c #947A7B",
"2X c #9B7C7C",
"3X c #997876",
"4X c #A86775",
"5X c #B86679",
"6X c #A47679",
"7X c #A36069",
"8X c #C66479",
"9X c #C45C73",
"0X c #9A827E",
"qX c #8E827B",
"wX c #A2807E",
"eX c #7C7A83",
"rX c #7A7681",
"tX c #827A85",
"yX c #8B7B84",
"uX c #887783",
"iX c #967B85",
"pX c #AA7888",
"aX c #B47587",
"sX c #D07188",
"dX c #E47B95",
"fX c #8D828B",
"gX c #988588",
"hX c #968993",
"jX c #9C929B",
"kX c #8F8993",
"lX c #A58888",
"zX c #A78C97",
"xX c #B68B95",
"cX c #A89397",
"vX c #B49597",
"bX c #B28A8E",
"nX c #B895A3",
"mX c #AB95A1",
"MX c #B7A2A7",
"NX c #C98D9C",
"BX c #E6849B",
"VX c #C799AA",
"CX c #CC9CB0",
"ZX c #EE93A6",
"AX c #F5A1B1",
/* pixels */
"@ @ @ @ @ @ @ @ @ @ @ @ @ @ @ @ + ; r @ # @ @ # = = @ @ # o X X X X # o o o # @ O O # @ o $ $ $ $ : + + @ o @ @ @ > O O : # # # @ @ 1 # o + # # # @ @ # @ # @ @ @ @ @ @ @ ",
"@ @ @ @ @ # @ # @ # @ @ @ @ @ @ o @ + + @ @ @ # @ @ @ O X O r ; ; 4 6 9 7 = > > = > > 7 7 5 9 w e 3 5 3 5 5 > . O O . = > : + $ @ @ @ @ r @ # @ @ # # @ # @ @ # # @ # # # ",
"@ @ @ # # @ @ # # @ @ @ @ @ @ @ + @ # # @ @ @ r + # o X @ 5 v l `  .0.y.7.E B m b h b V E Q 7.d.F.C.n.C.XX=Xb.7.v 5 > = O $ + : # @ # @ < @ @ @ # @ @ # @ # # @ @ @ # @ + ",
"# # @ @ @ @ # @ # # @ @ @ @ @ @ + @ @ # + + + + @ + O ; q | &.` z V 7.y.7. .' W B B B B B E Q 1.<.m.a.n.OXm.m.OXn.D.&Xc.R + $ : # @ o # 1 # @ @ @ @ # @ @ # @ # @ @ @ @ @ ",
"@ # @ @ # @ @ # @ @ @ r @ @ @ @ @ @ @ o o o # # + ; 5 n { @.7.' q v } &.| } | } b l z b E W T ~ 1.d.m.m.7.Q d.m.m.m.:XcXiXj   # # # $ @ @ # # @ # @ @ @ # @ @ @ # @ @ @ @ ",
"@ @ @ @ @ @ @ @ @ @ @ @ @ @ @ @ X O = = = 2 5 6 e n / W E ` ` V e / ] } } %.X.} U v w v R T T T 7.7.m.d.8.7.8.m.m.oX&X2XgX;Xm O @ + + # # @ # o @ # @ @ @ # @ @ # # @ @ @ ",
"@ @ @ # @ # @ @ # @ @ @ @ @ @ @ O ; q m { ` {  .@.' E b b z V Y Y +.} ( +.@.+.) T R 0 I R j R T W W 7.7.n.m.7.m.i.}.OXoX1XlX>X9.+ # 1 # o @ # # @ @ @ @ @ @ @ @ @ @ @ @ @ ",
"@ # # @ # @ @ # # @ @ @ @ @ @ @ e n } q.9.| E V W b s j j l m W Y 9.$.Y { @.{ T R R 0 j R j j R R W $.m.b.e.b.b.Z.s.OX,XoX2XcXgX1   1 1 @ @   r @ @ @ @ @ @ @ @ @ @ @ @ @ ",
"# @ # # # @ @ # # o + < X $ 5 ] w.[ ] ' ' ' W B k R j T Y W Y W +.$.$.Y R W T R T T R I , 0 T T T R R Y 8.P.P.P.P.n.n.Z.<X2X3XbXh.; X ; ;   r ; @ @ @ # @ # # @ # # @ @ @ ",
"@ @ + # @ @ @ # X r + $ r H f.g...` J ` ' {  .E T R R R T T W  .-.x.{ Y T T =.T T R I 0 I 0 R T 7.R R T #.P.&X&XP.A.n.d.OXoX+X6XgX3.. O < + + o @ # @ @ @ @ @ @ @ @ @ # @ ",
"# # # # @ # o # ; @ o 2 ..T.f.G ` / J ` ` `  .E R R j R Y T  .@.e.e.$.R T b.b.k.#.T R R R 0 T T b.R 0 R T v.uX&XP.n.r.0.m.}.}.2XwX0X6   o r + o # # # @ @ @ @ @ # @ @ @ @ ",
"# # # # # o # @ X X 8 ..f.f.q.L J m ` ' ` '  .W W W R R R W { $.=.@.@.T W b.b.b.v.k.$.R R j T T $.0 R R R $.A.;XS.e.$.7.i.d.s.3XoXcXXX5   r < + @ @ @ @ # @ @ @ @ @ @ @ @ ",
"# o @ # # < < @ . 7 9.F.r. .,.3.V m ` ' {  .{ { 7.$.T T U { { ( R T R O.b.G.P.P.P.v.k.T R R T T $.R R R w $.b.P.A.@. .| 0.u.u.oX|.lXvXT.o o < : @ @ @ @ @ + @ @ @ # @ + @ ",
"# # @ + @ 1 @   4 t.=XZ.a.0.1.' ' ` ` { { { { { $.T R R U T T Y T $.( #.b.G.J.J.G.G.b.$.T T T R T R U R I ( { b.b.$.| | ,.u.u.}.+X2XlXcXv o + $ @ @ @ @ @ @ # @ @ @ # # # ",
"# @ # o @ @ o 3 &.=X-Xd.1.<.1.1.7.' E ` ` ( { T { T Y R U v Y U O.o.#.O.v.rXJ.rXP.G.G.k.$.T $.T T R I I I O.{ b.b.@.7.| <.0.u.^.+X.X#XlXD.2 $ $ @ @ @ @ @ @ # @ @ @ # @ # ",
"# + o $ @ $ < T.>XD.0.:.:.1.:.' 9.' m m Y { O.T T T R T v U R T O.z.#.;.v.I.rXP.rXJ.G.k.b.$.#.$.( I I 0 R { o.@.b.r.c.a.r.d.u.~.|..X,X$XcX/ # : o # @ @ @ @ # o @ # @ @ @ ",
"+ : @ > # X r.>Xh.h.<.C B B B E  .E m Y / T ( ( U ( ( ( ( ^ / _ ;.;.;.l.N.H.H.H.I.I.I.N.l.k.l.*.z.O.O.O.$.#.z.k.b.c.r.r.r.a.a.h.h.,X%X.X0X1X& = + + : : : # o : @ @ @ @ @ ",
"@ + @ @ $ m qXZ.h.i.1.C B B B E ` Y Y Y { ( ( ( ( O.) ) +.o.) @.*.*.l.N.N.H.H.H.I.I.I.H.N.k.z.*.z.#.O.#.=.#.=.k.b.x.e.7.r.y.a.h.h.}. XoX3XgX .. : + + + @ + o : @ @ @ @ @ ",
"+ : + o 5 T.0Xg.h.i.:.C C B B ' ` Y Y / { +.O.( ) ) o.o.#.*.&.*.*.z.-.l.N.H.H.H.eXeXI.I.K.l.z.z.*.z.#.#.$.#.#.k.@.@.e.e.9.0.a.a.h.p.`.#X#X0X>X= o # : o # : + # @ @ @ @ @ ",
"o : $ > F.gX$XZ.a.5.D C C B B ` J ` ] ] +.} +.o.) ) ) +.*.-.=.=.*.-.l.z.N.H.I.I.eXI.eXI.I.l.z.#.#.*.*.*.#.#.x.b.b.k.b.c.y.0.a.0.a.h.).'.#X%XlXq.O $ : : + : + # @ @ @ @ @ ",
"# + o G 0X$XZ.h.4.>.C B B B z l G } &...+.o.%.o.O.O.o.#.#.=.*.*.*.z.k.l.N.H.I.I.I.I.I.B.N.-.;.o.o.*.z.*.=.x.v.v.G.v.G.A.c.r.y.9.0.i.h.).,X X0XgXv O o r + @ : # # # @ @ @ ",
"+ + = ..qXh.h.i.>.1.C N B b l q n X.t.-.+.%.%.*.#.#.o.*.=.z.*.#.;.;.*.l.H.H.I.I.J.J.H.N.z.o.o.O.*.z.l.l.k.x.v.v.G.A.G.B.c.y.r.9.5.>.i.h.#X.X#XgXXXa   o + # @ @ @ @ @ @ @ ",
"+ + = q.$Xi.i.4.>.1.C B N l l x ^ X.-.-.*.*.z.-.z.#.k.l.k.l.k.;.O.O.;.k.N.N.H.H.N.G.B.l.#.o.;.;.l.l.N.v.v.v.v.v.J.G.B.b.c.y.y.r.w.3.j.j.`.$X X-XlXC.2   + + + @ # @ # @ @ ",
"+ # @ C.h.i.6.P 1.D Z M M 6 6 x ^ %.-.-.*.*.l.l.z.z.l.v.x.l.l.*.o.o.o.k.l.N.N.G.N.H.H.N.*.o.;.z.N.N.G.J.P.J.G.N.J.P.G.c.V.A.C.c.5.h..Xp.6.#X X XlXzX/ o + < < @ @ @ @ @ @ ",
"+ X = D.a.a.<.4.:.M A A s s z b / ] %.+.*.*.l.l.V.-.-.V.N.N.k.z.%.( o.( ) o.*.l.N.N.N.*.o.o.;.z.=.x.v.B.K.K.H.K.G.A.A.b.B.A.A.c.a.9.w.j.g.Z.%XoX#XbX>X; X + # o @ @ @ # @ ",
"+ o 2 D.a.a.u.4.P A f A s h b b / _ ) } ;.%.l.V.V.-.-.V.N.N.l.l.*.o.) O.^ o.z.l.N.l.;.;.( o.;.z.k.v.B.I.rXrXU.rXP.J.v.b.b.A.B.M.w.w.j.g.i.g.OXOX@X0XgXH o ; o r @ @ # @ @ ",
"# @ 8 $Xa.s.p.4.N f s M h z V Y / / / _ ) ) *.-.v.v.v.V.G.J.G.G.J.N.k.l.#.;.l.N.V.-.o.o.;.z.z.N.l.N.J.I.rXrXI.J.P.P.b.b.t.M.M.c.w.q.w.w.5.i.Z.p.%X#XlXf.; @ + + @ # # @ @ ",
"@ # e XXs.i.i.<.C f f M B V ` ` _ G G _ ^ ) ) *.k.v.G.G.H.K.I.K.H.I.H.N.z.*.l.l.H.V.*.-.N.H.H.I.J.J.J.I.rXI.J.N.b.b.b.b.x.c.y.t.y.q.w.q.w.p.h.s.@X.X1XgX8   ; + @ @ # @ @ ",
"@ X q D.Z.4.4.>.L z V B V E ` / / n x / ^ ( ) %.z.l.B.H.I.U.Y.T.tXuXuXrXrXI.rXJ.B.H.H.H.H.I.I.U.eXeXeXeXU.I.J.N.c.v.x.c.x.t.y.t.f.f.f.j.i.i.h.h.~.@X,XcXy.= O @ @ @ @ @ @ ",
"@   x S.a.<.<.P J N V V b E ` Y n x e n ^ ) o.*.=.-.V.H.L.F.C.C.G.A.G.B.I.rXI.v.B.K.Y.Y.T.K.I.I.U.U.U.T.U.K.F.V.B.c.x.t.t.9.t.y.f.f.j.j.j.h.Z.Z.)..X,XlXgX9.O X @ @ @ # # ",
"@ o H C.0.1.4.K J N V B b E / Y n v v e ^ o.%.*.=.=.t.F.F.f.q.w.r.c.b.b.b.P.v.b.B.M.A.K.M.M.M.M.M.M.c.c.M.M.M.M.b.v.x.x.t.&.&.9.f.q.w.j.g.h.h.Z.@X|.+X6XvXgX] r # @ # # # ",
"@ # ] g.,.1.4.C J m b V l b T Y m v v e ^ o.*.;.+.} &.M.M.q.[ 3.1.7.7.7.Y 7.$.7.*.&.@.&.-.&...&.@.&.9.&.t.y.M.C.x.v.v.b.y.&.| | ..q.f.j.j.j.a.Z.^.~.oX6XlXcXjX^ o # # # # ",
"# l u.0.K [ 9.<.` V c l m n n x ^ _ x e H X.G X.X.X.L L X.P P L  .W ' ' ` ` E ' '  .J ' ,.,.3.' ..3. .3.r.r.0.r.t.M.M.M.t.&.@.} &.&.y.g.j.i.p.).h.i.#XwXvXlXwXvXL X 2 o r ",
"O ` p.4.[ 3. .1.N b l z n n U n e e H ^ ^ G G H H H H H L P 5.j.0.0.,. .' ' m z b V ` [ 3.0.a.a.g.w.0.0.<.7.,. .} &.t.t.&.&.| } &.q.q.g.g.i.6.). X`.h.%XcXlXvXvXvX; o + r ",
"2 9.p.>.K [ J :.z z l l x m n U 5 G ^ G G _ H H H H H H L L 5.j.p.h.i.4.:.' N b s K ' >.4.p.}.oX$X,X|.a.u.<.,.' n ` &.q...} } ....&.q.j.j.i.i.h.). Xh..XwXwXvXcXvXF.8 + X ",
"e r.i.K [ K V Q z l d l v n v n e e G H G x H 8 H 8 g H L L P K ).oX).i.>.P N f h ' P :.u.p.}.%X2XlX6X}.d.u. .c n G } &...} } ....&.q.w.y.i.i.h.).p.`.`.0XvXwXwX0XvXf.2 O ",
"_ r.0.P K J J W l d d l l l v v H e 8 G 8 8 8 5 8 2 g H f g f g P 4.>.4.C C M f V V C K P Z Z <.`.).}.~.6.1.>.J H n H ] ..X.} | } ..9.w.j.i.p.p.d.6.`._.3XlX0XlX0XgXcX;XC.",
"e t.u.>.J J ` B f z l l l e v v G e q 8 H 8 8 5 e 2 ; H M f a - >.h.h. X>.L N z c z V :.:.A A 2.3Xd._.3Xu.B J c x 8 e G ] } } } } ..9.w.i.j.i.j.6.).6._.#X3XwX0X0X,XcXMXMX",
"0 9.4.' J J V B z z l l l q v v G 8 8 H 5 8 4 4 8 g H H L L z s N >.h.<X,.c m c m V ' <.<.C B C oXp.2XlXh.J J m 6 8 q H G / } X.` &.q.w.g.h.h.h.~.).6.).%X3XwX%X2X0X1XgXcX",
"e 9.:.C K c c B d d d a l v n U G e e 8 g 8 4 4 g g L L P K B s z >.S.gXy. . .{ ` | y.0.4.4.Q h P  XvXvXOX[ ` / q q x H ` ] ] ] } ..q.j.g.h.h.h.d.^._.).`.3X3XwX6XwXlXlXcX",
">.>.K N N N z z H g d q e l U n ^ n n v e q 5 7 g d L 3.4.4.4.:.4.}.2X1X&Xe.| } | t.S.Z.d.i.:.2.+XlXlXbX3Xw.5.H v 8 q n G ] ] } ] } ..0.i.g.p.i.j.).`.`.`.%X3X1X3X1XgXgXgX",
"[ >.K N N b M H c g l l e v n n e ^ n e q 6 5 7 4 d J 5.w.i.g.i.3XiXlX:XL.e.&.} 9.y.C.Z.Z.$X|.3XbXvXbXbX1Xg.w.c e 8 q G / / ` ] ] | 3.q.i.h.h.j.).p.`.`.`.#X%X1X2X1XgXlXlX",
">.:.K M N z N J f c x v v v G U ^ ^ n e q 9 6 6 x c ] 5.w.w.g.g.<X<X:XC.t.| X.%.&.q.f.C.Z.<X1XlXlXbX2X2X#Xa.3.d q 8 e / ] G / / ] } 9.r.i.h.h.h.`.).6.`.).0X#X%X<X-X-X>XiX",
">.[ K N z z c N z l x n n U ^ ^ ) / ^ G v q 9 l G x n ` 3.f.g.g.F.S.C.=.t.=.x.f.&.&.q.y.C.OX&X<X%X%X}.}.a. .` a l l G } } ] ` / ] } &.0.y.g.h.h.).).`.).`.`.#X,XiX:XyXyXyX",
"P ' L M N c N N c d l n ^ ^ ^ ^ _ ^ ^ G n q q x v 8 8 x _ X.q.q.&.9.-.&.f.l.V.V.f.V.f.-.q.q.n.Z.s.a.0. .' V b j n m ] | } ] ] _ ] } | 9.j.j.).`.^.).).`.h.`. X#X=XuXyXyXyX",
"K K K N L c N H H 8 8 x ^ ^ ( ^ ^ ^ I G v v x q e 8 e w 8 e H G n ^ ) ;.x.l.l.l.f.V.V.V.q.9.r.r.9. .b l l v l b / _ } } ] ] ] / } } | 9.i.h.j.j.'.).`.6..X`.$X.X&X&XyXyXyX",
"K K L N H N N L H 8 8 ^ ) _ ( _ ^ ^ ^ e n G n e q 0 e e e e G ^ ^ ( *.-.B.V.H.H.l.H.N.T.M.9.9.| { / U e n U n / ] _ ] } ] ` ] ] | } } ..w.h.p.).`.`.`.).`. X.X#X&X&X:XyX>X",
"K P L L N N z L x 8 8 _ ) ( ^ ^ ) _ ^ ^ ^ / H n Y q e ^ ( ;.%.%.;.%.l.V.H.V.H.I.I.eXI.fXH.M.t.| &.-.-.%.+.} / } &.{ _ ] ] _ ` } } ` ` ..y.h.).).`.`.`.p.`.`. XoX&X&X-X>X>X",
"P N L L N L L c L 6 g H ..+._ ( _ / G / _ _ / n b / ] @.-.%.;.;.O.T k.uXk.rXrXrXiXrXuXuXrXeXeXeXN.V.B.B.t.t.&.} } } } ] } ] } } { { &.q.w.C. X X`._._._._..X#X#X-X:X&XXX&X",
"K K C N L N L c L g g L ..} { O./ _ ^ _ { ( Y m m { ] } -.*.-.l.rXrXrXz.z.z.tXtXtXrXuXP.z.rXeXeXI.I.I.K.M.B.t.&.} ] } ] } } } { } @.=.q.g.Z. X.X}._._._._..XoX$X<X<X=X=X&X",
"Z L N N L L c L L c c H } } } +._ _ ] ] / / G / _ } %.*.l.V.H.I.rXrXuXrX#.I I z.rXb.$.$.v.rXeXkXtXeXtXU.U.U.G.V.+.} ] } } &...} } +.&.&.f.Z. X X.X`._._._._. XoX<X1X:X=X&X",
"L L L M N L H L H H H H / } } { ) ] ) _ G Y ` ` _ %.&.V.F.H.Y.eXrXtXrXrXk.#.#.rXk.k.k.z.rXrXrXeXkXhXkXfXfXfXU.K.f.t.} } } ..X...] @.%...t.g.Z.oX.X'.'.'._._..XoX<X<X<X=X&X",
"D N N N f L L N H H H n m ] ] } } ] / H n m ` } } -.f.V.H.T.L.;XeXrXuXyXtXtXnXmXiXaXiXiXiXmXmXmXjXjXhXiXkXkXtXyXT.F.f.&.} &.&...} %.} ..y.g.Z.oX.X@X'.'.'.'.|.|.oX-X<X:X*X",
"P N Z L f f J N x x d x G ` ] ` } ` / n n m ` | t.t.M.F.K.L.Y.uXrXuXuXpXpXpXmXmXVXnXnXnXpXmXmXtXzXzXmXiXiXhXiXhXqXT.F.f.t.q.&.&.} } } &.f.g.h. X.X`.'.'.'..X/.|.OX*X,X>XuX",
"Z Z Z N z N L L x q d H G } ] _ / / / m G ` ..9.M.C.C.F.D.=X;XfXuXiXnXnXpXnXCXCXCXCXnXnXCXCXVXVXnXnXnXzXmXzXiXiXqXqXT.g.M.t.-.&.&.) %.&.t.f.h. X`.`.`._.'.'._.|..X-X-X>XuX",
"Z L Z f M g g L n x c H X.X.| } G G / G ` } 9.f.C.S.C.C.D.XXXX:XuXuXnXpXCXpXCXnXpXnXnXCXVXVXVXCXMXnXnXnXxXmXxXzXqXqX>XD.F.M.t.x.-.%.&.f.f.g.Z. X`.`.`._.'.|.|.|.%X,X,X,X].",
"L D N A N g c M x x g x H X.] _ _ _ G X.X...q.w.n.m.m.m.G.G.rXrXuXiXuXuXaXaXuXpXiXpXaXsXpXpXsXzXVXVXCXnXVXvXlXcXlXgXqX$XF.f.t.t.9.e.t.q.t.f.g.Z.`._._._.~.|.|.}.OX$X-X,X>X",
"Z N Z L N M L L f x x x G X.X.G G _ G ] ] ..&.5.e.c.b.S.m.].].].uX8.8.8.E.8.8.E.E.].(.sX[.5XaXpXNXNXNXNXVXVXvXvXvXcX0XqXD.g.V.t.=.&.&.=.q.y.g.h.).)._._.'.@X|.|.oX-X>X<X<X",
"Z Z M N N N N f x c d c H _ G G G G H / ] X.....&.r.b.8.8.m.8.b.8.~ ~ ~ ~ ~ ~ E.~ 7.E.!.! !.4XaX4XpXbXNXVXVXNXvXcXlX0X%XXXC.y.9.=.&.&.&.q.g.S.}.).)._.'.@X+X+XoX-X&X-X-X>X",
"Z N A N N M N f g g x x H G G G H H v H G X.X.} | r.7.k.Q 8.Q ~ ~ , T u j i ~ j u k Q F ~ ~ 8.E.Q./.[.5XbXNXNXNXvXwX0XqXOXa.r.,.9.=.&.q.f.F.$X#X).).'.'.@X+X+XoX*X-X,X<X1X",
"Z Z A N Z N L A g x z m m m G / G m n H ] [ ] ` { |  .W T W R I k i y , u j i i u S u u p p F F F F ! Q.@X6XbXbXvXpX3XoXm.n.r.7.&.@...&.y.D.oX#X`.`._._.@X+X+X+XoX-X<X<X1X",
"Z Z A Z N N N f g g c c m m G G G H H G J ` ` G b b b h j k i i y * * t , , i j i h u y u p p p F F F F W.[.aXbXpX3X*XOXa.r.7. .@.+.} &.y.C.XX X).p.^.^.|.@X*XoX<X1X0X0XgX",
"Z Z M Z Z M z f f f c c c n m m m m b m G G m c d 5 h a , j , , * & & . * * , > - - * & * t i p S p S F F Q./.4X6X4X+X).a.7.' E | @...&.y.Z.OX}.p.p.^.)._.@X+X*X3X<X3X0X2X",
"Z L M Z Z N N z f z z c l l n n x x x x c c z a l a j j y j , , & $ $ & $ * $ $ % % % % * t p p F F R.R.W.Q.!./.6X@X_.d.0.| | | +.} &.9.y.C.}.).p.).^._.@X+X+X+X2X3X1X1X1X",
"D Z Z N Z A A N f B c l l b m b n 6 6 d d 8 6 7 7 a h s s h s y * * % % % % * * * * * t S R.!.(.7X[.{.5X5X{.4X4X4X@X_.p.2.,.3.9.' ..5.q.f.f.j.g.).~.~.~.|.+X4X6X2X,X,X3X2X",
"P Z N A f A A N M N N c n b b b x d 5 6 6 6 6 7 7 7 b V Q 8.! ~ k S k i t * y t t t p !.{.BXBXBXZXBXBXsX5X5X5X6X6X+X|.d.<.>.| 9...q.X.f.q.j.g.j.~.).|.}.}.].+X*X<X*X,X1X2X",
"Z Z Z N A f A N M N c m n x c l l j a 6 6 a a 5 s j V :.8.].].].].4X4X!.E.E.R.F ! W.[.sXZXZXAXAXAXBXsX9X4X{.4X6X6X@X~.u.1.,.3.0.9.....5.g.w.g.g.^.|..X}.~.].oX*X-XoX,XiX2X",
"M N N A A A A N z V c c x m c l l a 6 6 6 6 6 6 s h B Q ! Q.[.aXaXsXsXsXsX8XsXsX{.sXsXdXBXZXZXZXdX8X9X{.[.7X6X6X*X|.p.4.>.3.w.a.9.[ [ q.w.5.5.j.d.~.oXOX}.}.oX+X&X-X<XpXiX",
"N B M M M A z N M c c n n n b l 6 6 5 6 5 6 6 5 6 a M D D ! Q.[.5XsXsXsXdXdXdXdXdXdXdXdXdXdXBX8X8X9X9X(.!./.'.'.%X.Xs.<.:.,.w.0.j...P q.3.5.K w.s.~.OX|.OXOXOXOX+X&X<XiXiX",
"V B z M M z b N z N c H n H n l 6 6 6 5 5 5 6 4 6 a k Z Z Q ! Q.!.[.{.sXsXsXsXsXsXsXsXsX9XdX8X8X8X[.[.(.W.^.^._.#X Xd.>.' >.9.9.5.L ..5.5.3.P 6.d.~.OXOXOXOXOXm.OX&X&XiX<X",
"C B z f z B N N M H m G H G G x 8 6 6 5 5 5 6 4 g d z z Z C D Q R.Q.!.[.[.{.5X9X9X8X9X9X8X8X9X8X{.!.R.W.W.^.)._.).h.4.:.J [ 3.3.X.L q.5.j.P 4.4.a.s.}.S.Z.Z.S.Z.XX&X&X-X<X",
"B M z c c c N B z N m H G / / m l 6 6 5 7 5 6 4 d d l z M k A C S ! Q.!.!.[.[.[.(.(.(.{.8X(.(.(.R.! W.W.Q.^.).^.h.a.5.K J ,.9.3.L 5.[ j.5.5.6.6.d.s.}.}.}.m.C.C.&X&X&X-X-X",
"m c b c C J V V m b m G c b / ` e q 8 8 6 6 5 4 8 q l z b b h h s k D ! ! ! ! E.R.R.W.W.2.W.W.! F ! W.W.^.6.p.6.6.5.P K K ,.4.<.f.5...5.0.4.0.u.n.m.a.m.m.S.S.&XXX-XyXyXyX",
"c b b c V J ` V J c m G m m ` m n x 8 8 6 4 6 5 8 8 q l l h h h s A k D D S F ~ S F F F F F ! ! F P W.P 6.6.2.P 5.P K L K 4.i.w.f.5.0.i.a.u.u.a.n.n.m.m.n.S.S.L.L.:X>XyXyX",
"m c V N J J ' ` J c J J ` ` / m m x 8 8 6 4 6 6 8 8 6 6 d j j d a z h h h k S D S S S S D D Q Q D 2.6.6.>.P P P >.L L L K ,.a.a.0.0.0.a.a.y.p.m.n.n.n.Z.A.XXD.=X=X=X;X>X:X",
"E m J J J ` ' ' K m J ` } } ` m m x d 6 6 4 4 5 6 6 6 q 6 6 l a 6 j j 6 h h B k S A k Z C D :.Q D :.2.>.P P P P L N c N ` 3.r.w.0.0.a.a.a.a.Z.S.S.S.m.S.XX;X;XyXiX:X:XiXiX",
"E ` ' ' ' ' ' ' ' J ` [ | } ` Y x x q 8 5 5 5 6 5 6 6 d 6 8 6 6 5 w 9 6 a a l h A N C C V E ' :.' E V E K C M f c x c c J 3.r.q.n.a.n.m.a.n.Z.S.S.S.A.XX&XuXyXfXyXyXiXiXgX",
"' ' [ [ [ ' ' | [ [ [ | } | } G x q q q 6 5 4 4 5 5 6 6 6 6 6 6 3 0 5 0 q 9 v l f c V J E E E E ` V b v l a s g g g z c ` | y.a.n.m.m.S.C.Z.A.n.S.S.F.L.L.uXfXgXkXkXkXkXfX",
"[ |  .,.[ [ } ' [ ' X...[ | ` m l 8 8 q 6 4 4 4 4 5 4 4 4 4 5 4 3 3 3 0 0 6 e v v l v n R Y R R l q q 6 6 7 s s g 6 f J ` ,.a.C.F.S.D.S.S.S.S.S.F.L.D.L.;XuXfXhXjXjXjXjXjX",
"<.,.,.[ [ ' | | | [ | 3.| | ` b l l q 8 6 4 4 7 7 7 7 ; ; ; ; ; 1 3 3 3 3 2 5 6 9 9 w 9 0 , 0 I 5 5 5 2 5 7 a a d g z J ' ,.y.C.S.L.=XL.L.XX=X&XXXL.L.;XuXyXkXjXjXjXcXzXcX",
"9.,.| | ,.| ' | [ | | [ 3.X._ H q q q 8 8 6 5 4 3 4 2 ; ; ; ; ; 3 3 : 3 3 3 3 3 3 1 3 3 3 0 3 : 3 7 2 5 6 l l b c G } | @.r.a.F.&XG.P.m.rXm.&XP.;XuXuXtXtXfXfXhXhXjXcXjXjX",
"r.7.7.,.7.,...9.[ ,.9...&.%.] G x x x l q q 8 5 2 1 ; ; ; ; ; ; 1 > > : : : > : 3 : 3 > 3 I I , 0 w 9 v v Y Y  .` | 3.9.9.y.C.D.P.m.uX&XuXrXuX&XyXyXyXyXtXyXyXfXhXhXjXjXjX",
"r.9.7.9.9.9.9.0.q.q.q.q.&...) ] n m m x x e q 6 5 2 2 ; 2 2 2 2 3 : 3 1 3 : 3 3 0 0 I I R T T Y T T T O.{ +.$.@.9.r.y.x.M.M.C.L.P.uXuXrXuX].uXuXyXyXyXyXfXkXiXfXkXkXhXjXjX",
"r.0.0.0.9.9.0.y.q.q.w.q.X.&.X.X.] ` _ _ G n e q 8 5 5 2 4 5 3 5 w w w w I I I I I w O.R #.T W T =.k.@.e.=.e.e.b.t.M.C.B.A.K.K.L.rX].uXuXuXuXuXuX:XuXyXyXiXhXkXkXhXhXhXjXjX",
"y.r.0.0.9.0.0.r.w.q.w.9.X.X.&.X.] } ] ] ` n n q H e e 8 e 8 e H T U U ( U ( O.T #.O.O.o.z.z.k.k.b.b.b.b.b.b.c.A.v.M.A.A.P.P.K.I.uXrXuXuXuXuXiXuX:XuXyXiXfXfXkXhXfXfXfXfXfX"
};
