/* XPM */
static char *_986945ce665464d8b28c2a3fb8ce41clINJ4QMnul8YSFPu[] = {
/* columns rows colors chars-per-pixel */
"85 85 252 2 ",
"   c #0C0A09",
".  c #17090B",
"X  c #14120E",
"o  c #151515",
"O  c #1A1414",
"+  c #161A1A",
"@  c #1A1A1A",
"#  c #181818",
"$  c #0F1210",
"%  c #26020B",
"&  c #2C0A13",
"*  c #350B17",
"=  c #231D1D",
"-  c #27191B",
";  c #330914",
":  c #1C211D",
">  c #27211E",
",  c #1D1D21",
"<  c #261D22",
"1  c #3D1525",
"2  c #242224",
"3  c #2B2424",
"4  c #2B2628",
"5  c #332926",
"6  c #352B2A",
"7  c #3B2D2C",
"8  c #342727",
"9  c #3C312E",
"0  c #38302B",
"q  c #3B2E32",
"w  c #392D36",
"e  c #3D3333",
"r  c #3B343A",
"t  c #1E2122",
"y  c #470E1C",
"u  c #481A29",
"i  c #551A2C",
"p  c #432D2B",
"a  c #48282B",
"s  c #44332D",
"d  c #4A362D",
"f  c #442D31",
"g  c #4B2D32",
"h  c #482836",
"j  c #572835",
"k  c #433433",
"l  c #4C3533",
"z  c #453935",
"x  c #4B3A35",
"c  c #42353B",
"v  c #4C353A",
"b  c #453B3B",
"n  c #4B3C3B",
"m  c #533534",
"M  c #533B35",
"N  c #5A3B37",
"B  c #53353A",
"V  c #533C3B",
"C  c #5A3C3B",
"Z  c #5A3536",
"A  c #51302E",
"S  c #662936",
"D  c #74293B",
"F  c #67353D",
"G  c #73353D",
"H  c #6A1D2F",
"J  c #4B413D",
"K  c #4A4139",
"L  c #534137",
"P  c #54423D",
"I  c #5B423D",
"U  c #5C483A",
"Y  c #62463E",
"T  c #443541",
"R  c #453B43",
"E  c #4B3D43",
"W  c #4B3A47",
"Q  c #533D42",
"!  c #583D44",
"~  c #663A45",
"^  c #773847",
"/  c #6D2E43",
"(  c #464143",
")  c #4C4343",
"_  c #4C444C",
"`  c #4E494D",
"'  c #4D4744",
"]  c #534443",
"[  c #5B4444",
"{  c #534946",
"}  c #5C4A45",
"|  c #53454B",
" . c #5A454A",
".. c #554B4B",
"X. c #5B4C4C",
"o. c #5C514C",
"O. c #5A5048",
"+. c #4D4A52",
"@. c #4B4852",
"#. c #534552",
"$. c #534C54",
"%. c #5B4C52",
"&. c #584D59",
"*. c #545154",
"=. c #5D5253",
"-. c #55525B",
";. c #5B535C",
":. c #5B595D",
">. c #4F545A",
",. c #624544",
"<. c #644A45",
"1. c #634C4B",
"2. c #6B4D4B",
"3. c #674648",
"4. c #74484C",
"5. c #63524D",
"6. c #6C524D",
"7. c #66564B",
"8. c #72544D",
"9. c #634D52",
"0. c #684C54",
"q. c #78485C",
"w. c #645453",
"e. c #6B5453",
"r. c #645954",
"t. c #6C5A55",
"y. c #63545C",
"u. c #655A5B",
"i. c #6B5B5B",
"p. c #6B565A",
"a. c #735553",
"s. c #745B56",
"d. c #7A5B54",
"f. c #745C5B",
"g. c #7B5D5A",
"h. c #755659",
"j. c #6D615B",
"k. c #74625B",
"l. c #7B625D",
"z. c #726056",
"x. c #5B5661",
"c. c #5D5A63",
"v. c #575563",
"b. c #645C64",
"n. c #6A5D64",
"m. c #635E69",
"M. c #695965",
"N. c #745D62",
"B. c #795C63",
"V. c #646164",
"C. c #6C6264",
"Z. c #65626B",
"A. c #6B636C",
"S. c #6B696E",
"D. c #746364",
"F. c #7B6363",
"G. c #72646B",
"H. c #7A646A",
"J. c #7D696D",
"K. c #776A68",
"L. c #6B6671",
"P. c #6C6A72",
"I. c #6B6775",
"U. c #736B74",
"Y. c #7C6C74",
"T. c #736E79",
"R. c #776774",
"E. c #74727A",
"W. c #7A747C",
"Q. c #777478",
"!. c #7A726E",
"~. c #5C6167",
"^. c #3F3943",
"/. c #853A49",
"(. c #863C52",
"). c #894656",
"_. c #954858",
"`. c #845C5A",
"'. c #88454F",
"]. c #84635B",
"[. c #8B655D",
"{. c #88675C",
"}. c #91675E",
"|. c #995A67",
" X c #8C5666",
".X c #A75667",
"XX c #B1596D",
"oX c #846563",
"OX c #8B6463",
"+X c #856964",
"@X c #8B6B64",
"#X c #846B6B",
"$X c #8B6C6B",
"%X c #866669",
"&X c #926C6C",
"*X c #956A65",
"=X c #8C716D",
"-X c #92726D",
";X c #9A716D",
":X c #826C73",
">X c #8C6E72",
",X c #856B7A",
"<X c #996C74",
"1X c #857273",
"2X c #8C7374",
"3X c #84727B",
"4X c #8B757C",
"5X c #8C7A7B",
"6X c #8A7A76",
"7X c #927474",
"8X c #93767A",
"9X c #947B7C",
"0X c #9A7B7A",
"qX c #987776",
"wX c #A56778",
"eX c #B76578",
"rX c #A7757A",
"tX c #AA6570",
"yX c #A64B59",
"uX c #C56578",
"iX c #C45E76",
"pX c #98837E",
"aX c #8C8179",
"sX c #A2827F",
"dX c #7C7982",
"fX c #8C7B84",
"gX c #877884",
"hX c #967C85",
"jX c #8D6D80",
"kX c #B07686",
"lX c #D07189",
"zX c #E57B94",
"xX c #7E8186",
"cX c #8C828B",
"vX c #988589",
"bX c #978994",
"nX c #9C939B",
"mX c #8F8594",
"MX c #A68A89",
"NX c #A78997",
"BX c #A99497",
"VX c #B59697",
"CX c #B28B91",
"ZX c #B794A4",
"AX c #B190A2",
"SX c #B9A5A7",
"DX c #C78B99",
"FX c #E8859C",
"GX c #C698A9",
"HX c #C799AD",
"JX c #ED91A7",
"KX c #EFA1B3",
/* pixels */
"@ @ @ @ @ @ # @ # @ @ @ @ # @ @ : : @ # o # @ @ - @ = @ @ @ $ X $ X # # $ o o , O O # # o $ $ $ o + # # # # # @ @ 2 O O < O o # @ @ : # # @ # # + @ # @ # @ # # @ @ @ # @ ",
"@ @ @ # # @ @ @ # # @ @ @ @ @ @ o o : @ : @ @ X # @ @ # X o : > 3 5 q q 8 - < < - < < 8 4 8 q k w 6 8 6 6 6 - X O O O O < , , $ @ @ @ @ @ @ # @ # # @ # @ @ @ @ @ # @ # @ ",
"@ # # @ @ @ @ # # @ @ @ @ # @ @ # + o # # # @ : = @ X X @ 6 c k V ] e.i.1.] V B B v v B ! ! 0.p.K.D.D.G.:X:XN.0.c 8 < - O $ o , @ , # # 2 @ @ @ @ # @ # # @ @ @ # # @ @ # ",
"# @ @ # # @ @ # # @ @ @ @ # @ @ : # : : @ @ @ @ + o # > k X.=. .v V 0.i.0.[  .Q B B l B B C ~ 1.0.h.f.B.F.H.H.oXN.J.,XN.c @ $ : o @ X # = + @ @ @ @ # @ @ @ # @ @ @ @ # @ ",
"@ # @ @ # @ @ + # @ @ @ @ # @ @ @ @ @ X o o # # o 2 q c { 9.X.[ e b ..w.o.X.O.{ b v k x Q Q ! ~ 0.h.B.B.4.0.h.B.N.B.4XBXfXq   @ + # X + < o # , # @ @ @ # @ @ # @ @ # # # ",
"@ @ # @ @ @ @ @ # @ @ @ # # @ @ X o - @ = 3 5 6 e n _ | Q ] ] V r ) ` ....*.$...K r r b c W W ! 3.0.h.M.0.0.0.B.B.$X>X8XMX1XK O o + @ # o @ # o @ # @ # @ @ @ @ # # @ # @ ",
"# @ @ # # @ # # # @ @ @ # # @ @ O = e n { { .. .9.! W v k v E Q ) $.$._ ..&.$.` W R c c c c T W !  .0.q.B.M.q.B.f.F.%X$X0XMX6Xo.+ # 2 # $ , # o @ @ @ @ # @ # # @ # # : @ ",
"@ # # @ @ @ @ @ # # @ : @ # @ @ e n X.r.w. .Q Q Q v h f f k v ] E w. .W | %.| E R T w w c h h T W ! #.M.M.0.M.M.F.s.#X8X$X0XBXvX2   2 2 # @ $ , # @ # @ @ @ @ @ @ @ @ @ # ",
"# @ @ # # # # # @ X : : $ $ 0 { t.o.] [ [ ] Q B T h h W W W W ! $.;.#.W W @.W W W ^.T w w w T W #.T W W M.R.R.R.R.N.N.H.8XqX0XCXoX- X > : $ , < @ @ @ @ @ # @ # # # @ @ @ ",
"@ @ # # @ : @ # X : @ $ : K r.F.o.P P ] [  . .Q Q T W W ! W !  .;.y.#.W W ! v.W W ^.T w T w T W &.T T W &.R.jXY.R.G.N.h.%X>X&XsXsX6.X X : + # o @ @ @ o @ @ @ @ @ @ @ # @ ",
"@ # # # # # # # > @ o > =.!.j.] { J P ] ! ! | ! W W T h W W #.%.y.y.#.W W y.;.y.&.W T ^.T w W W q.T w T W M.3XjXR.N.p.e.g.oXOXqXpXpX0   o t + o @ o @ @ @ # @ @ @ @ # : @ ",
"# o @ @ o o # @ o X 0 =.j.i.p.P P v ] [ ] ]  .! ! W T T T !  .#.&.&.&.W &.M.M.m.m.v.&.W ^.w W #.v.w T T T &.R.,XR.y.%.0.h.f.d.qX@XBX#X5   : : @ @ @ @ # @ @ # @ @ @ @ o @ ",
"# X : + o @ 2 + . 3 w.J.p.X.5.1.P n ]  .| | #. .0.&.W T T | #.| W W W #.M.I.R.R.I.M.v.W W T W W #.T T T r #.M.R.G.%. .1.e.e.a.&XOXMXSXK.. # 2 + @ @ @ @ # @ @ @ # @ @ @ @ ",
"# # @ o + 4 +   5 u.1XF.f.e.1.I [ ] Q ] ] |  ._ #.! W T R R Q W W &.@.#.M.I.T.T.R.I.M.&.W W W W #.T W ^.r _ &.M.M.&. .X.1.a.a.oX&XqXMXBXn $ @ $ @ @ @ o @ # @ # @ # @ @ o ",
"+ @ # X t @ $ 4 =.6X2Xe.2.0.,.3.0. .Q ] ] _ ] W #.W W R c T R R @.@.@.#.m.T.T.T.R.I.M.y.v.W #.W W ^.^.^.R _ #.y.y.9.y.9.2.e.a.d.&X@X7XvX1X> o $ @ @ @ @ @ + @ @ @ @ o @ @ ",
"@ @ o X @ $ : Q.6XJ.p.3.~ ,.3.[ w.] M E E | _ _ _ W R R R T R W @.v.>.>.m.T.E.T.dXI.I.x.v.&.&.#.@.^.^.w R | #.-.M.M.p.i.h.a.e.`.OX@X-X=XBXJ $ t o @ @ @ @ # @ o # @ @ @ @ ",
"+ , @ < @ X t.5Xl.l.2.C Z B V ! ] Q n E ) W _ _ R _ _ _ _ ( _ ` $.>.-.c.Z.P.P.T.E.E.E.Z.c.c.:.-.v.@.@.@.$.-.v.v.n.n.M.r.p.f.g.k.l.-X-X+XpX0X& - + + + , , O # , # + @ # @ ",
", o @ @ . n aXK.k.s.,.C B B v ! ] Q E E _ _ _ _ _ @.` ` @.` ` ..-.-.x.Z.Z.L.P.P.E.dXE.P.Z.c.v.-.v.$.@.$.&.-.;.;.M.M.9.w.e.p.f.l.F.].+X-XqXvX .. , , # o # # # # # @ @ @ @ ",
"+ , # O 7 !.pXl.l.a.,.C C B B [ ] Q E ) ..$.@._ _ @.+.$.-.-.-.;.-.v.c.c.Z.P.P.P.dXE.E.E.P.c.x.v.v.-.v.$.&.&.&.&.&.&.9.w.p.p.s.f.F.g.+X-X@XvX6X< o , , o + , o # @ @ # @ @ ",
"$ t $ < K.pX!.F.g.6.I C ! B v Q ) ' ' | ` $.$.@.` ` @.$.-.;.;.;.-.x.c.c.m.L.E.E.dXdXW.E.P.m.x.-.+.-.-.-.-.;.c.b.b.b.m.M.r.p.t.p.s.].l.@X-XqXvXt.O . , , + , # # # @ @ @ @ ",
"+ + o K vX1XF.k.2.<.C m B B v k J ..=.o.$.$.+.*.@.@.@.$.;.x.;.-.-.-.c.c.Z.P.E.E.T.T.E.P.Z.-.*.+.$.>.-.;.x.x.m.m.A.m.L.G.n.p.p.w.e.f.g.].7X#XpXvXc O X : @ + , # @ @ @ @ @ ",
"+ + = o.pXl.].8.<.<.F M B n k e b ..u.:.*.*.-.-.$.+.&.-.x.-.-.@.+.-.-.c.Z.P.E.U.L.P.P.Z.v.@.@.+.-.v.c.c.c.b.n.m.L.L.G.G.n.i.e.w.7.<.s.].=X{.7XMX:X7   o + + , # @ # @ # @ ",
"o : @ r.1Xs.a.6.<.,.C B M k k z J *.u.:.*.-.:.>.v.v.v.c.c.c.v.>.+.@.$.c.Z.L.P.P.Z.Z.P.c.-.@.+.+.c.m.m.Z.m.m.m.m.I.Z.A.m.n.n.i.p.w.5.l.z.].@X+X6XMXK.3 $ : + + # @ # @ @ @ ",
"+ @ # K.l.a.8.3.<.~ Z m l 7 6 b J *.:.:.*.:.:.~.v.v.c.Z.c.c.c.v.$.@.@.v.c.Z.Z.L.Z.P.P.m.-.+.-.x.m.m.L.L.R.L.L.m.I.I.L.n.A.D.D.n.7.z.@Xd.d.-XoX+XMXMX' $ + : + , @ @ @ # @ ",
"@ X - K.s.s.e.2.,.m A A a p l v ) ..*.$.*.:.c.~.b.u.c.V.Z.~.c.v.*.@._ _ ` +.-.c.Z.Z.~.-.@.@.-.x.;.b.n.L.T.U.U.U.A.L.A.n.A.G.G.n.j.e.t.z.z.{.2X>X&XVX6X> o + o # : # # @ # ",
"+ X 8 J.f.s.a.6.I A A A g g v v J ' ....*.>.:.c.V.b.c.Z.Z.m.c.v.-.$.@.@._ @.-.c.Z.~.>.@.@.@.>.-.x.m.Z.T.dXW.E.E.R.R.A.M.n.A.G.C.t.t.t.z.a.g.%XoX@X0XvXJ o 2 o @ @ # # @ @ ",
"# # e J.f.g.s.8.M A a m g v V Q ) ) ' ' +.+.-.c.m.m.Z.Z.L.L.L.Z.A.Z.c.x.>.>.v.Z.S.v.+.@.>.v.c.~.m.m.I.T.dXT.E.T.R.R.M.M.u.C.C.i.t.r.t.z.t.s.l.g.&X&XMXk.= @ + @ # # # @ @ ",
"@ o k 1XB.s.a.6.M d l m B n ] ] ' ) R ) ( ' +.-.x.m.Z.L.U.T.T.Q.T.T.P.Z.v.v.c.~.S.~.:.:.m.I.P.E.I.I.T.T.dXT.P.Z.Z.m.M.m.n.b.n.i.j.r.t.7.t.s.l.g.@X&X8XpXs   > : # # @ # @ ",
"@ $ c J.k.e.6.<.P l B V B Q ] ) ) n b ( ( ( +.*.v.c.S.P.Q.Q.Q.Y.dXdXdXdXdXI.dXI.S.S.S.U.S.E.Q.W.dXdXdXdXW.E.S.Z.n.n.b.b.u.u.u.u.j.j.j.z.s.f.l.B.g.&X7XMXj.@ # @ @ @ @ # @ ",
"@   k K.f.2.2.I I V M Q v Q ) E n c r K ( @.+.-.;.x.V.U.Y.J.C.K.R.R.R.R.I.dXdXM.G.U.Q.Q.Q.U.U.Q.W.W.W.Q.T.U.S.A.A.b.u.M.u.y.u.i.j.z.z.z.z.l.oXF.`.&XqXMXMX=.O X @ @ @ # # ",
"@ X ) D.e.3.6.C P n M M v E ) E b c r r ( @.>.*.;.=.:.K.K.j.r.7.p.M.M.M.M.R.M.M.C.A.G.K.C.C.A.C.C.C.C.n.C.A.G.C.A.M.b.u.u.=.=.w.j.r.z.z.k.l.l.F.OXOX&XkXBXvX` : # # # # # ",
"@ #  .N.<.<.6.C P n v B v n E E b b z r ( @.*.>.*.*.=.C.j.r.} 5.3.9.0.&.! 0.&.&.;.%.=.-.w.;.=.=.=.w.=.=.r.i.C.C.b.b.n.C.u.=.o.X.=.r.j.z.z.z.f.F.`.`.@X0XMXBXBXK X # @ o # ",
"o k a.6.U o.w.3.P V v v b b b b ( K K r K ` ' O.` O.U U O.O.U U  .[ [  .] ] ]  . . .]  .5.X.5.[ o.5.1.1.a.p.w.p.u.C.C.C.u.=.X...o.r.i.f.k.f.d.].l.d.=XsXVXMXsXVXU X 3 O < ",
"O ] g.6.} <.1.,.n x k k b n R c r r ( b K ' J K K K K K U U 7.z.e.0.<.[ [ [ B l l Q P <.5.e.s.k.k.t.6.e.e.1.1.9.X.*.u.u.r.*.....o.:.r.k.z.s.d.l.oX{.k.qXMXMXVXVXBX> O # , ",
"3 w.g.,.} } [ ,.l x s k v b R n e K ( K ' K K z K b K K L U 7.z.g.].s.6.<.[ n m a I I <.2.s.oX$X=X2X#Xh.e.2.[ ] b { =.r.=.....o.o.=.t.s.s.z.g.k.oX{.d.$XsXsXVXMXBXK.0 o O ",
"b p.e.I } I V ! l d k k z c b b e r ( K K ( K 9 K 0 9 K L P U U l.@X].s.<.I M l l I ,.,.a.d.+X-X0XMXsXOXh.a.3.V b K ..=.=.....o.o.=.r.i.i.s.s.g.`.d.oX@XpXVXsXMXMXBXj.4 O ",
"( i.e.I U P P V s k s k k c c c K e e K s 9 0 0 0 5 0 K d d p d Y 8.<.6.C N M d M V C C U F Z 2.+X`.oX`.6.3.X.V K b K { o.O...o...=.w.t.s.g.s.d.d.d.[.{.-XMXsXsXpXvXBX1XN.",
"r r.e.<.P P ] B x s k k e z k c ( e e e K 0 0 5 0 5 5 s d d p y 2.g.k.+X<.V V l x l V ,.Y A A 4.0Xd.{.qXs.C P x e k r K ..........o.w.t.z.z.g.d.8.].d.{.-XqXsXpX0X7XBXSXZX",
"w w.2.Y P M V B l l s k e c c c ( e e b 0 0 5 5 0 0 d L U L A p m 1.F.8X<.x B v n n } 2.2.C m C $Xd.0XCXg.V P x 9 9 e K J { { O...o.w.t.k.k.g.l.`.].8.].-XqXsX;X0XsX8XvXBX",
"r r.,.C I x x B s s k f k e b R K b e e s 0 5 5 s d L U Y U M a s } F.vXi. .X.] [ X.i.w.0.8.~ g Y oXVXVX+X} { J 9 9 z K ' ' { ..{ o.w.s.k.k.l.l.d.d.{.{.}.qXaXsX0XsXMXNXBX",
"<.} I V M M l x K s s e r c b b b ^.b c e e 6 8 s s L 7.6.6.6.,.a.oXhX4X1Xr.X...X.p.J.F.h.a.3.4.*XsXMXCX7Xt.7.K b e e b J { ....{ { o.e.i.k.k.d.d.].{.{.{.-XqXqXqX7X9XMXvX",
"<.<.I M l M x M d d s k c c c b ^.b b c e 9 6 8 5 s U 7.a.z.g.s.7X9XMX5XJ.y.-.X.w.r.D.F.F.#X$XqXCXVXCXBX0Xl.7.K e 0 e n ' J ' { { X.w.t.s.k.g.g.].d.{.{.{.=X-XqX9XvXvXMXMX",
"<.<.V M M d M V d z z c R R R R K ( K r e 7 7 6 z x { 7.t.s.k.f.9X5X4XD.M.X.=.=.=.w.j.D.#X8X8XMXMXCXrX0X=Xs.1.s e 0 z ' { ' J [ { ..5.t.s.f.l.l.].].d.{.{.aX-X7X7X4X4X5XfX",
"} I I M d M n M z z z z c R ) ( ' ( ( R c e e e K z n { 5.i.k.f.J.H.D.y.u.=.n.V.=.w.u.i.N.J.>X7X-X-XoXF.s.<.Q k z r K ....] ' ' { ..o.e.s.k.l.].].].{.{.{.{.=X-XhXjXfXfXhX",
"Y Y I M M M l L d s e r R ( ( ( _ ' ( ( b k e c b 9 e b ' o.r.:.=.=.y.=.b.u.V.m.V.V.j.u.r.u.N.H.k.f.0.<.[ n n g c ) { ..X...{ ' | ..%.w.s.k.l.l.].].].].{.{.#X=X,X4XgXfXfX",
"I I L L M M M M K s 9 K ( ( _ ( ( ( ( r b c z r r w 9 e 9 r J K R ) $.*.b.c.b.:.j.A.V.V.u.w.w.e.5. .n c c e k v K ] { { { { { ] ..{ X.w.t.k.].].{.].{.d.{.+X@X=X,X4XfXfXfX",
"I I N M L M M L K 9 9 E ' _ ( ' ( ( ( K b K b e e 0 r r r r K ( ( ' -.:.S.Z.S.S.~.S.P.!.C.y.w.X. .] R r b R b E ..{ { ..{ ] { { ....{ 1.t.l.l.].{.{.{.{.{.{.@X=X>X,X4X5X4X",
"I I U L d M M L x 0 e ) $.` ' ( ' ( ( ( ( ) K b b b r ( ' *.*.*.>.*.~.V.S.S.P.E.E.dXQ.xXU.C.p.%.;.=.:.*.*.| ) X.=...' ..{ ' { ..X.{ | X.p.F.].].{.{.{.d.{.{.+X@X>X2X4X5X5X",
"U I L N L L L M L p 9 J o.$._ _ ' ( ( ) _ ] E b b ) | -.:.*.>.>.@.@.v.dXM.I.dXdXmXgXgXjXdXdXdXdXZ.Z.S.V.u.u.*. .......' | ......' #.=.r.i.F.+XoX{.[.[.[.}.@X=X6X8X1X1X1X1X",
"Y N N L L L L L L d z L o...| | ' ' ) ' | ' ) E E | | ..*.:.:.V.dXdXdXv.v.v.dXdXgXdXdXI.v.dXdXdXE.E.Q.U.G.C.u.*...{ ..........{ ..%.=.r.k.F.+X+XOX{.[.[.[.{.@X=X8X8X2X:X1X",
"N U L M L L L L L K d K { %.#.$._ ' ` | ' ) ) ) ' ..*.=.V.V.S.Q.dXdXdXdX#.T W v.I.M.&.&.v.dXdXmXdXxXgXdXW.W.G.V.%.......X.o.O.....*.=.r.j.D.+X+X@X{.[.}.[.@X+X$X8X8X8X1X1X",
"N I M M M M L L K K K K ] { ..{ ....{ ' ) E E ] ' o.:.V.S.P.Q.xXdXdXjXdXv.#.#.dXM.M.&.&.dXdXdXdXmXbXmXmXcXcXW.U.j.u.......o.*.o.| $.o.o.r.l.F.@X@X@X}.}.[.[.@X$X2X8X8X1X1X",
"N N M M M M L L K x x x ) ' { { ..' ' n b b '  .$.:.V.A.K.U.Q.3XdXdXgXgXgXgXAXnXhXkXhXnXhXAXnXnXnXnXbXmXmXvXfXgX!.K.r.o.*.=.=.=.....$.=.j.k.{.#X@X@X}.*X}.{.[.oX>X7X8X4X6X",
"U N M M d d M L z z z b J { { ] ..] ) n b n [ X.u.j.C.C.!.!.Q.fXdXdXhXhXkXhXAXAXZXZXAXAXAXAXAXmXnXNXNXbXvXbXvXvXaX!.K.j.i.r.;.=.$.....=.r.z.K.+X@X{.[.*X*X[.OXOX%X7X8X4X8X",
"N N N M A M L L z z k K J { { { ' ] J n n ] o.r.i.D.D.H.Y.3X3XhXhXhXAXAXAXHXHXHXHXHXHXZXHXHXHXHXAXZXAXNXNXMXvXvXaXaX!.k.C.u.u.=.o...*.:.j.j.l.+X+X{.{.[.}.}.[.OX$X2X7X9X5X",
"N N M A d d d L x z z K O.O.O.{ J J ) ) ] { w.i.D.K.D.H.J.#X:X4XjXgXAXkXHXkXHXZXkXZXZXHXHXHXHXHXHXZXZXZXCXBXNXMXpXaX6X!.K.n.u.u.:.*.=.j.j.z.l.+X{.{.{.{.}.}.OXOX-X-X7X6X4X",
"N N Z Z M d l M z d z z K { O.' { ' P { O.O.r.r.p.K.N.B.R.R.R.jXjXjXjXjXkXkXjXwXjXkXkXlXkXkXlXAXGXGXGXGXGXCXMXBXnXpXaX1XK.C.u.u.w.y.u.r.r.j.l.F.{.{.[.[.[.[.OXoX#X>X2X6X8X",
"N N M M M M M M z z k z K { { ' J ' ' ' { O.r.r.w.n.N.B.B. XB. XjXq.q.q.q.q.q.(.(. X.XXXwXkXkXkXDXDXDXGXGXGXVXVXBXBXpX6X#XD.n.u.;.;.=.:.r.i.l.F.].].[.[.}.*XOXOX$X>X8X6X6X",
"N Z m M M M M d d z z z K J ' J J K ( K { O.o.o.=.p.M.h.q.B.q.M.q./ / / / / / (./ q.(._.(._.XXwXtXrXCXDXGXGXGXVXVXsXsX-XJ.D.p.w.w.=.=.=.r.k.K.F.].].[.[.*X*X&X@X>X>X2X6X8X",
"N Z Z M M m M m d s s x K J J J K b b J ' { } ..X.w.y.0.0.0.~ / / h T i h h / h i j / / / / q.(.'.|..XeXCXDXDXDXVXsXpXaXoXN.p.0.;.y.=.=.j.K.$X=X{.].[.*X*X;X;X&X2X7X8X8X9X",
"Z M A N N N M d s s l n n K E K K n n n { { { {  . .[ ! Q ! T T h u u 1 h i u u i j j i H H D D G ^ ^ ).|.rXCXCXCXMXqX$XB.h.p.9.=.=.-.w.j.K.=X=XoX].].[.*X*X<X>X>X2X8X0X9X",
"Z N A Z Z M M d s x l n b K n ) K n J K ] [ P P x z v g h h i u 1 * * 1 1 u i h i a u u i H H H D D D G /.|.rXCXkXrX<XOXg.p.9. .%. .X.=.i.F.#X+X].].`.`.OX*X&X&X7X8X0XvXpX",
"N Z N m Z M m d s d x x n z b K K n b n n P n z f f f f 1 h u 1 * & % % & & 1 , * 1 ; ; ; y i H D H H D G '.|.wXrX;X&Xg.a.1. .| %.%.*.=.i.l.+XoXd.d.`.`.}.*X&X>XqXqX9X0X9X",
"N N A N M m M m d l x x k z c n z z z x n z k p k p f f h h 1 1 & . . . % & . . % % % % ; y H H D D /.(.'.'._.|.;X*XOXB.e.1.X.X.%.%.=.=.j.l.F.oXd.`.].[.OX&X<X<X0X0X9X9X9X",
"F N Z B Z A m A A l x z z z x v z k 7 7 s 7 7 8 8 a a a h g a u ; & % % % % ; ; ; ; ; y D /._.yX.X.XeXeXeXtXtXtX;X*X X`.2.1.5.5.} =.r.7.j.j.k.k.`.].`.`.OX&X<XrX0X8X7X0X0X",
"Z M B m l m A B l M M x k v x v k f p q 7 s 7 8 8 8 B ! ~ 4.^ / S S j i y y y y y y S _.tXFXFXJXJXFXzXlXeXeXeXrXrX<XOXd.2.3.1.5.o.o.r.7.r.z.k.k.`.oX%X]. XOX<X<X7X>X7X0X0X",
"N N Z m A g A B m M n x z x n k z f 7 7 p 7 7 7 a f V ~ 4. X|.|..XwXwX)././././ ^ (..XlXJXJXKXKXKXFXlXuXtXeXrXrXqX*X`.8.2.1.5.t.r.O.o.r.z.z.z.d.`.].OXoXoX X&X<X<X>X8XhX0X",
"m V M m m g m l l M M x b x b v k 7 7 7 7 p 7 7 f g B ~ ^ )..XkXkXlXlXlXlXuXlXlXiXlXlXzXFXJXJXJXzXuXiXXX.X.X;XrX<X&Xd.2.<.1.e.i.7.O.O.r.t.7.7.d.h.oX$XOXoXoX%X&X>X>XqXhXhX",
"V m m m A A l m A x x b b z n k 7 7 7 7 7 8 7 8 7 p B Z ~ ^ _.|.eXlXlXlXzXzXzXzXzXzXzXzXzXzXFXuXuXiXiX.X_.}.[.*X-X@Xg.2.} 1.t.t.r.O.O.r.7.7.<.7.h.].%X%XoX%X%X%X,X>X8XhXhX",
"V m m l l l l M m x n x n n b z 7 7 6 6 5 7 7 6 7 p B m F F ^ )._..XXXlXlXlXlXlXlXlXlXlXuXzXuXuXuXXXyX_.'.'.`.].-X+Xa.,.I 1.6.w.7.U 7.7.7.7.Y 8.s.`.oXoX%X%XoXF.:X>X>X8X8X",
"V m l l l v M M M x n x K J n n e 7 6 6 7 6 6 5 s s l m Z Z F ^ /.'._..XXXXXeXiXiXiXiXiXuXuXuXiXXX_.'./.'.`.`.OX+Xk.6.} I X.5.1.O.O.O.7.z.Y 8.7.h.B.oXoXF.F.H.H.%X:X>X4X2X",
"V m l l x M V B l M K K J ' ) n e 7 7 6 5 6 7 6 s k s l m g A V S ^ )._._..X.X.XyXyXyXXXiXyXyXyX/././.'.'.`.].`.g.s.6.[ I <.5.5.U 7.7.z.7.7.8.8.g.B.oXF.F.D.F.H.:X:X4X8X4X",
"x v l x V P V V n n V J n n ] P z e 9 9 7 7 5 7 9 e k z v l g g j j F ^ ^ ^ ^ (./././././.4.'.^ G Y '.4.`.8.8.d.8.7.Y U I 1.e.6.z.5.6.e.p.e.e.a.N.B.B.F.B.H.J.:X:X3X5XfXfX",
"v x v x V V ] V P x n P n n ) E b k e 7 6 7 7 5 9 9 k k f l g f a A A Z F S D ^ D D G G G G G ^ G G 4.4.4.8.8.Y 7.Y I I I 6.s.p.7.5.5.s.s.e.a.s.N.N.B.N.B.H.H.Y.:X2XfXfXfX",
"n v v P V ] [ P P n V P ) ] ] n b z 9 9 7 6 5 7 7 9 7 7 k f g k f g g g j j S S S S S S S F F Y G 4.4.4.2.Y Y Y } U L M I 5.s.t.e.e.e.s.f.f.h.F.B.N.N.H.H.J.:X:X3X3X4X5XfX",
"V V P P ] P [  .I n V { [ { ] E b z k 0 6 6 5 7 7 9 7 e p 7 e f q f p q a g B m S A Z Z Z Y F ~ ~ Y 3.3.Y Y Y U P L l P P 1.p.t.h.p.h.N.h.N.F.F.H.H.N.H.Y.3X4XgX5X4X4XfXfX",
"P ] [ [  .[  .} } P  .}  .X.{ n z z e 9 6 5 7 5 7 0 7 7 e 9 q 7 w 0 w q w f k g A m V V Q ! [ [ ! [ Q V C V M M l d x n P 1.p.p.n.h.f.N.N.N.H.H.H.H.H.Y.:XgXfXvXfXfXfXvXhX",
"[  .[ } }  .[ [ } { } X.X.X.{ E k e e 9 7 6 5 5 5 6 7 7 7 6 7 7 4 6 0 w q f c v M n B ] Q Q Q Q ] n v z v a p p s p l n P 1.t.f.B.D.H.H.H.D.B.H.K.H.H.J.,X5XcXvXbXmXbXcXmX",
"} 1.X.X.} [ [ X.1.} } o.O.X.] n k e e e 7 5 8 5 5 5 7 5 5 5 5 5 4 w 4 q q q r r c c n b v n n v e r e 7 7 8 p p s 7 d V ] 1.i.D.H.H.J.H.H.J.J.J.Y.J.Y.Y.3XfXcXbXnXBXnXbXnX",
"1.1.1.} } X.<.X.} } X.5.X.X.] n e k e 9 7 5 5 8 5 5 > 3 > > > > 2 4 4 4 4 4 6 0 w q q q q 7 w w 6 6 6 6 8 8 p p s s x P } 1.i.D.H.Y.:X:XY.J.:X:XY.:X:XW.3XcXbXnXnXnXnXBXBX",
"w.1.1.X.1.X.<.X.X.} X.o.w...' K e e e 9 0 0 6 5 5 4 3 > : > > > 4 4 t 4 2 4 4 4 4 4 4 4 4 w 4 < 4 8 6 6 7 k k v x ] } X.9.w.i.K.R.H.R.Y.Y.Y.,XT.3XjXgXgXgXfXcXbXbXnXnXnXnX",
"e.w.9.1.9.X.9.1.5.5.o.o.o.o.| ' z z z e z 9 9 6 5 3 > > > > > > 2 2 2 < 2 , < , 4 , 4 4 4 w w w w w w c c E ) | ] { w.w.y.i.D.J.R.:X,X,X3X,X,XjX4XfXgXfXfXfXcXcXmXbXnXnXnX",
"p.w.w.9.w.9.5.p.7.w.5.w.w.o...' n n b b c r 0 0 5 4 4 3 3 4 4 4 2 4 4 2 4 , 4 4 w w w ^.T W W W W _ W | #...#.9.w.y.p.C.n.C.G.Y.,X,XjXdX3XjXdXjXfXgXfXcXcXcXcXcXmXbXnXbXnX",
"p.p.e.e.w.p.p.t.t.r.t.w.w.*.O.O.{ ' ] ' K K r e 0 0 5 4 5 4 4 0 r w w r r ^.^.^.^.^.@.W @.W &.W ;.;.&.;.;.y.y.M.n.C.A.G.G.U.R.Y.R.,XdXgXjXgXgXjX4XgXfXfXhXbXbXmXbXbXbXnXnX",
"p.t.p.w.w.e.p.p.r.r.e.r.>.O.o.*.{ { ] { ' n b e K r e 0 e e e b _ ^.( ( R _ @.@.@.@.@.@.v.v.v.M.M.M.M.M.b.n.n.G.n.C.G.G.H.U.U.Q.jXdXjXjXgXgXjXgX4XgXfXhXcXmXmXbXcXcXcXcXcX"
};
