/* XPM */
static char *a4ae08cbb34141f58024828fa7e44fdcSWuIxcNL8qRWTI5v[] = {
/* columns rows colors chars-per-pixel */
"50 50 233 2 ",
"   c #151515",
".  c #1A1615",
"X  c #161816",
"o  c #191916",
"O  c #161719",
"+  c #1B1619",
"@  c #161919",
"#  c #1A1A1A",
"$  c #19120C",
"%  c #28020B",
"&  c #211516",
"*  c #221C1C",
"=  c #35141D",
"-  c #360A16",
";  c #24211D",
":  c #361A24",
">  c #1F2022",
",  c #252322",
"<  c #2C2524",
"1  c #2C252A",
"2  c #2E2928",
"3  c #322826",
"4  c #352C2A",
"5  c #3B2C2C",
"6  c #362827",
"7  c #3C312D",
"8  c #37322F",
"9  c #3A2D35",
"0  c #3D3433",
"q  c #3D323C",
"w  c #3F3A3A",
"e  c #491726",
"r  c #581A29",
"t  c #422C2E",
"y  c #46282C",
"u  c #45342E",
"i  c #4A322E",
"p  c #47392F",
"a  c #482B35",
"s  c #572835",
"d  c #433434",
"f  c #4C3434",
"g  c #443934",
"h  c #4D3A35",
"j  c #44343B",
"k  c #4B353A",
"l  c #443B3B",
"z  c #4B3C3B",
"x  c #533634",
"c  c #523B34",
"v  c #593A35",
"b  c #54353A",
"n  c #5C343A",
"m  c #523C3B",
"M  c #5A3C3B",
"N  c #583635",
"B  c #692B39",
"V  c #6B373C",
"C  c #742C3C",
"Z  c #4C423D",
"A  c #484039",
"S  c #534136",
"D  c #54423D",
"F  c #5A423D",
"G  c #60413F",
"H  c #443643",
"J  c #453C43",
"K  c #4C3E43",
"L  c #4D3C48",
"P  c #533E42",
"I  c #583D45",
"U  c #682C45",
"Y  c #6A3947",
"T  c #773A48",
"R  c #732F44",
"E  c #4C4344",
"W  c #4C434B",
"Q  c #4A4548",
"!  c #544444",
"~  c #5B4444",
"^  c #534A45",
"/  c #5C4A44",
"(  c #52444C",
")  c #554B4B",
"_  c #5B4C4B",
"`  c #5B464A",
"'  c #5D524E",
"]  c #4E4B53",
"[  c #4F4651",
"{  c #544552",
"}  c #534C54",
"|  c #5C4D53",
" . c #594D58",
".. c #545154",
"X. c #5D5252",
"o. c #56535B",
"O. c #5B545C",
"+. c #5B585E",
"@. c #624442",
"#. c #634A45",
"$. c #624C4C",
"%. c #6A4C4A",
"&. c #6B4545",
"*. c #754C4A",
"=. c #64524D",
"-. c #6A534E",
";. c #645047",
":. c #634E55",
">. c #6A4E54",
",. c #635453",
"<. c #6B5554",
"1. c #655955",
"2. c #6B5B55",
"3. c #63555B",
"4. c #6B555B",
"5. c #665A5C",
"6. c #6B5B5B",
"7. c #725453",
"8. c #735A55",
"9. c #7A5D55",
"0. c #73555B",
"q. c #735C5B",
"w. c #7B5E5C",
"e. c #7F5755",
"r. c #724E56",
"t. c #6C605D",
"y. c #74615C",
"u. c #7D625C",
"i. c #5D5660",
"p. c #5D5A62",
"a. c #625661",
"s. c #635C64",
"d. c #695E65",
"f. c #675D68",
"g. c #7A5E63",
"h. c #755D64",
"j. c #5E6263",
"k. c #6C6265",
"l. c #65626B",
"z. c #6B636C",
"x. c #67656A",
"c. c #746364",
"v. c #7A6364",
"b. c #72646C",
"n. c #7B656A",
"m. c #7B6A6B",
"M. c #766967",
"N. c #6C6771",
"B. c #6E6D74",
"V. c #736C74",
"C. c #7D6B73",
"Z. c #746D79",
"A. c #766976",
"S. c #75727B",
"D. c #78737A",
"F. c #757172",
"G. c #893C50",
"H. c #86444E",
"J. c #8C4555",
"K. c #934756",
"L. c #825E5B",
"P. c #8A5357",
"I. c #96515D",
"U. c #84645D",
"Y. c #89655E",
"T. c #86695E",
"R. c #975765",
"E. c #8D5A71",
"W. c #925B73",
"Q. c #B85E72",
"!. c #AC586C",
"~. c #836564",
"^. c #8A6563",
"/. c #846863",
"(. c #8B6A63",
"). c #836B6B",
"_. c #8C6C6B",
"`. c #83656C",
"'. c #936C6C",
"]. c #956A68",
"[. c #8E716D",
"{. c #91716D",
"}. c #826C73",
"|. c #876C75",
" X c #916E73",
".X c #847274",
"XX c #8C7474",
"oX c #8C7977",
"OX c #8B767C",
"+X c #86767B",
"@X c #937474",
"#X c #947976",
"$X c #94757A",
"%X c #937B7C",
"&X c #9A7979",
"*X c #A76675",
"=X c #B6697B",
"-X c #A87378",
";X c #A64F5F",
":X c #C5687B",
">X c #9B827E",
",X c #8F847E",
"<X c #A1827F",
"1X c #7C7981",
"2X c #857382",
"3X c #8D7A84",
"4X c #887B86",
"5X c #907582",
"6X c #B07488",
"7X c #DA778D",
"8X c #CB7185",
"9X c #89818A",
"0X c #9C8484",
"qX c #92848D",
"wX c #998585",
"eX c #8F8B92",
"rX c #948992",
"tX c #998894",
"yX c #9D929B",
"uX c #A58889",
"iX c #A68997",
"pX c #B68A99",
"aX c #A99296",
"sX c #B39396",
"dX c #B38C8E",
"fX c #B98BA2",
"gX c #B391A2",
"hX c #AF97A5",
"jX c #CE8B99",
"kX c #C597A6",
"lX c #C48DA6",
"zX c #F48FA9",
"xX c #E9879E",
/* pixels */
"o # # @ # # # O # # # # # o O # # #   . ; # * * # * # , , * , # & & + # # O # # @ # # # o o o o O @ ",
"o o + # # @ @ > #   # o # # # . & d g z :.! k f f k b $.>.d.4.h.| l 6 ,   o O X # # # # # O o o # # ",
"# # # # O > # O o # o o # . # < l _ ! z X.,.) m f k m I >.g.h.0.c.h.OXm.& * o $ O # # # # # @ @ O o ",
". # + # @ O # # o . * 6 d l K ! l E K K ( ) ) E j j J K I >.d.>.0.c.).3X).3 * o o # # O # # # O # # ",
"@ @ # # @ O # . * 0 E _ ` I P k a j L :.{ L { L q 9 q H L L 4.4.h.n.`.|.0Xm.$ ; o # # # + # o o # O ",
"@ @ # # O + o 2 ) ,.^ ! ` I a H L I { :.{ L [ L H q q H { j I A.|.h.g.E.@X0X/ $ o o # # # + o o # # ",
"@ @   . # # 5 6.6.^ z ! ! P I j H (  . .{ } a.a.{ L H H L q H a.}.b.>.q.u.[.%X8 o o o + + + o o o o ",
"X > + * . 5 c.6._ ~ P ` ( ( | L H L L ( ( a.V.b.N.L L L L L H L f.3.$.>.7._.>X,Xo o # # + # o o o O ",
"@ O # O 0 M.v.%.$.$.~ ( W K W J H H H [ ] p.p.1XN.a.L ] L H H [ O.3.:.>.<.U.@X>X_ . . # + + # # # # ",
"@ @ o 2 F.v.F @.I ~ m K W Q W E J W ] ] i.p.1X1X1XN.i.] o.L L ] 3.s.4.4.q.v.~. XoX3 # . > # O # # @ ",
"# . * M.n.8.@.b h E P L Q ] [ [ ] ] ] o.i.l.1Xl.1XN.f.p.o.] o.]  .3.3.<.6.w.~.'.%XX.o o + #   # # # ",
"o o X..Xv.<.N m k E ^ [ ] [ [ } o.o.o.o.p.l.l.1X1XN.p.i.o.o.i.i.3.d.s.5.1.<.w.^.@XoX0 . o # # O O o ",
"o 2 m.).7.&.V x d z ' o.....] } o.o.o.o.o.l.1X1Xl.1Xo.] ] i.i.i.f.N.z.d.5.,.7.L.[.oXm.* o o # # # o ",
"o 2 M.7.%.G N i u l ..+.o.p.p.i.p.p.o.] o.p.l.l.l.l. . .p.N.l.N.f.f.f.b.k.6.8.9././.>X2.X # # # O # ",
". 7 q.q.%.N x y d z ) X...p.j.p.1Xi.o.] ] ] o.p.p.o.] ] i.f.1XN.Z.A.z.k.k.6.2.t.y.).@XwX4 # + + # # ",
"o g c.8.%.i i i h E ( W } +.j.p.o.i.1Xl.p.] o.l.o.] o.f.p.i.1X1XA.V.f.d.k.6.2.2.8.u./.#XX.# # + o # ",
"& l M.2.#.b f K z Q Z Q Q ] j.x.1X1X1X1XA.N.l.l.N.l.B.S.S.D.1XB.x.x.5.s.6.6.2.2.y.9.U.@X).< # # O @ ",
"& z 6.=.F m m b ! E w w Q ..o.j.p.l.f.a.b.V.N.N.B.V.b.V.V.C.F.B.k.d.5.a.,.5.t.y.t.U.L._.uXM.* # >   ",
"& ! ,.;.D m h z z l w w Z ....1.t.,.I  .,.:. .3.X.3.3.:.1.X.X.t.k.d.d.6.X...6.t.q.u.u.^.>XuXM.;   # ",
"6 $._ ;.~ h f l l K w A Z ^ Z Z / ~ $.:.@.I P ~ I ` $.0.<.<.-.,.,.:.5.5.) _ 1.2.y.8.~.~.>XuXaX1.* . ",
"z <.~ / S f d l g l l A A A 7 p h F 7.T.8.#.c i F @.8.(.@X@Xq.%.! ! _ X.' ^ ' t.8.y.9.u.{.uXuXuX( + ",
"! <.~ S h d d d g j w 0 p 7 3 u h p c -.7.@.c h c F @.&.^._.w.$.S g Z ' ^ _ ' =.8.y.9.U.(.<X<X<XwXn.",
"D $.F S f i d d l l 0 0 7 6 5 i S i i %./.-.z k c $.F v U.^.@X@.S 7 g ^ ^ ' _ 2.u.8.9.9.(.#X>X>X0XaX",
"~ ~ S h k d d q w l A 0 7 6 7 m ;.#.S #.oXh.$.` 4.q.,.Y 7.uX>X<.D p 0 Z ^ ^ / ,.y.u.9.u.T.[.<X{.0XuX",
"#.~ c h h g d l l l l 0 8 6 d ! <.8.y.OX%Xc.' X.6.c./.@XuXdX<Xu.D 8 g ! Z ^ _ ,.8.u.u.U.T.[.#X#XwXwX",
"&.M h c h p 0 l J J E l d 0 g Z $.6.c.m.M.6.O.3.3.q.v.|.@X_.u.-.h d A ) ^ ! | ,.t.9.U.U.T.(.[.OX5X3X",
"~ F c c g p d K Q Q E l g 0 q 0 0 ^ ^ ) } +.l.s.k.k.5.5.6._ z j g K ^ ( ^ ) ) =.8.u.U.U.U.T._.XXOX3X",
"F M c c c d g W Q Q J E l l 0 q w Q E ] +.x.N.N.B.F.x.X.| W E E E ^ ) ^ ^ ) ( | y.u.U.U.U.(.(.XXOXOX",
"G S S S S p A ) Q Q Q E W l l Q ..o.o.+.l.N.Z.4X9X2XD.V.f.k.d.O...^ ) ) ) W | ,.y.u.T.T.T.(.{.XXXXoX",
"F S c S S g A ) ) ) Q E E E E ' ..j.B.B.B.i. .N.z.s.N.1X1X1XD.b.t.) ( ) ) ) | ,.t.T.(.(.Y.(._.@XoX.X",
"F v c S S g z ^ ) ) ^ E Z E ) +.x.F.1X1X1XZ.N.}.C.C.9XrXeXrXeX4XF.t.' ..' ..) X.t././.(.(.(.^.@XoXXX",
"v c p c S h h ! E ) ! l A _ 6.k.m.F.%X9XtX6XiXgXgXhXhXyXiXiXtXtXwX+XM.t.X.' ) ' 8.u.T.(.].^.~._.$XOX",
"v v c c c f A ^ ^ ^ Z Z ^ ,.k.v.b.|.2X5XiXfXfX6XlXfXlXlXkXkXdXsXwXwXoXM.5.X.X.1.t.y.T.T.T.Y.Y.{.[.#X",
"v c c i h p p Z ^ ^ Z ^ ' 1.6.c.h.E.`.E.E.E.E.E.6X6X6X6XpXlXkXsXsXuX,Xm.t.5.X.+.t.y.U.U.T.Y.^._.XX#X",
"v v v c g p g A Z Z A E _ ' ,.4.0.r.r.Y U U U U R G.E.W.R.6XjXkXsXdX%X).6.,.X.X.t.m.T.Y.(.'._._.XXoX",
"v x x c f i h z A A Z E ! ! ~ ` I U L s : e e U U r B R G.*.P.6XdXdX$X~.0.$.X.,.y.).T.Y.(.'.'.@XoX>X",
"N x x x i f z h z z z z ! z g a y y : = % = = = : - r r U C C I.-X6X'.0.#.~ _ X.q./.U.L.Y.]. X$X&X5X",
"v N x x i f h d h l l d d u 5 t y y : % % % % % - - r T G.G.K.K.].'.^.*.$.$.' 1.q.u.L.L.L.]. X&X&X5X",
"v N x x f h h k g g d 5 y 5 5 a I Y R B s e e e r G.6X7X7X7X6X=X-X-XY.-.$.,.' X.t.y.9.Y.Y.E. X&X$X&X",
"N N x i x h z h k d 5 6 t 5 5 N Y I.*X=X=X!.!.!.Q.7X7XzXxX8XQ.!.*X].L.&.-.,.' 1.1.8.e.Y.L.^. X X&X5X",
"b x f f h h l z l u 4 4 5 5 5 f n *.I.Q.8X8X7X7X7X7X7X:X:X!.I.P.^._.8.#.=.=.' 1.-.;.7.v.~.`.`.).$X%X",
"b f h b z m h S z 0 4 4 4 6 5 f h B R J.R.!.Q.Q.:X:X:X:X;XK.H.P.L.U.-./ =.=./ -.-.-.7.U.~.~.`.).|.$X",
"h f z m m z z Z Z g 0 5 4 5 u g f a x n T H.J.J.K.K.;XH.G.G *.P.L.*./ F =.=.$.<.8.<.7.g.v.v.m.}.5X3X",
"h m m P m m z Z Z l d 8 5 5 5 t d d y a s s B B C C V V V G *.-.;.#.S F -.2.<.<.8.q.g.g.g.n.C..X5X3X",
"m ! ! ! ! ! ! ! E z d 8 6 6 5 5 t t 0 9 t y a s r n M Y I &.@.V F c c D ,.q.6.q.h.g.v.n.n..X2X3X4X3X",
"! ~ ~ ~ ~ ~ / _ ^ l 0 7 4 4 4 5 5 6 5 5 5 9 j k c v E D P z f i i i f D =.h.h.v.g.n.n.m.C.+XqXrX4XqX",
"$._ @._ ~ $._ $.! g 7 8 4 3 3 < < < < 1 1 4 4 9 j j d 0 9 4 6 5 5 d z ~ 4.h.n.}.C.n.C.C..X4XrXyXyXyX",
",.$.$.$._ $.:.$.^ g 7 d 8 4 3 < , * , , < < < 1 1 1 1 4 4 4 9 j z D / ,.q.c.C.C.+X|.+X+X2X3XqXtXyXyX",
"<.$.>.-.1.,.,.:.) ! l l g 8 2 2 < ; < 2 2 1 1 1 9 q q H L [ L { | X.5.f.b.A.D.2X2X2X2X5X4X4XqXrXtXyX",
"<.<.1.<.1.4.,.,._ / ^ E E d 0 8 8 8 w w w w J W [ ] o.o.i.i.a.f.f.z.b.b.m.C.2X2X2X2X5X5X4XtXqXtXrXeX"
};
