/* XPM */
static char *_345779c350942da9a8e66cb35d9b295yaixB5CRTMRmYsS9[] = {
/* columns rows colors chars-per-pixel */
"50 50 234 2 ",
"   c #060B0D",
".  c #0B0D0D",
"X  c #050B07",
"o  c #120F0E",
"O  c #0C110F",
"+  c #11120E",
"@  c #1B140C",
"#  c #070E12",
"$  c #0A0D11",
"%  c #0C1214",
"&  c #0D1519",
"*  c #0E191A",
"=  c #131413",
"-  c #161914",
";  c #1A1A15",
":  c #12161B",
">  c #141A1D",
",  c #1C1C1A",
"<  c #1B1613",
"1  c #100F14",
"2  c #2B150C",
"3  c #231B15",
"4  c #221D1A",
"5  c #2A1E1A",
"6  c #251812",
"7  c #30150C",
"8  c #1E201D",
"9  c #25211E",
"0  c #2B221B",
"q  c #33221C",
"w  c #39261A",
"e  c #151D22",
"r  c #1A1E23",
"t  c #241F24",
"y  c #1B2024",
"u  c #192226",
"i  c #232423",
"p  c #2A2623",
"a  c #2C2C2A",
"s  c #2A2925",
"d  c #332B23",
"f  c #3C2C24",
"g  c #352B26",
"h  c #3B322B",
"j  c #3B3534",
"k  c #3A3B3A",
"l  c #2C3033",
"z  c #432B1E",
"x  c #42311D",
"c  c #432D23",
"v  c #432D28",
"b  c #44332B",
"n  c #4C352C",
"m  c #4B382C",
"M  c #483428",
"N  c #523A2D",
"B  c #563529",
"V  c #473831",
"C  c #4C3B34",
"Z  c #493731",
"A  c #543E32",
"S  c #573D35",
"D  c #564234",
"F  c #5D4235",
"G  c #5B463A",
"H  c #58463B",
"J  c #5B402D",
"K  c #634434",
"L  c #634A3C",
"P  c #6C4B3C",
"I  c #694637",
"U  c #74493A",
"Y  c #76513C",
"T  c #69452D",
"R  c #3B4046",
"E  c #474848",
"W  c #574A43",
"Q  c #57524E",
"!  c #5A5959",
"~  c #495154",
"^  c #654C42",
"/  c #744C42",
"(  c #6C5243",
")  c #6A554A",
"_  c #735443",
"`  c #7C5444",
"'  c #7D5945",
"]  c #745A4C",
"[  c #7B5C4C",
"{  c #795548",
"}  c #755B52",
"|  c #6B5E58",
" . c #7C614E",
".. c #7B6256",
"X. c #6C635E",
"o. c #5F6364",
"O. c #686866",
"+. c #766B66",
"@. c #797878",
"#. c #6E706F",
"$. c #81543D",
"%. c #845D4B",
"&. c #865A47",
"*. c #835F51",
"=. c #87644E",
"-. c #846553",
";. c #8B6554",
":. c #8E6A54",
">. c #8B6C5B",
",. c #85685A",
"<. c #936A55",
"1. c #936D5B",
"2. c #9A6F5B",
"3. c #996A54",
"4. c #8D715B",
"5. c #93725D",
"6. c #9B735C",
"7. c #9C775D",
"8. c #93684C",
"9. c #A2745D",
"0. c #A1795E",
"q. c #8B6D61",
"w. c #8B7466",
"e. c #947463",
"r. c #9B7562",
"t. c #9D7A64",
"y. c #987B6B",
"u. c #946C62",
"i. c #A47762",
"p. c #A57B64",
"a. c #AB7D65",
"s. c #A47D69",
"d. c #A97D68",
"f. c #AA7762",
"g. c #A07C70",
"h. c #9C8376",
"j. c #8F8177",
"k. c #A5826C",
"l. c #AC836C",
"z. c #AA856A",
"x. c #B3866D",
"c. c #B3896F",
"v. c #B28367",
"b. c #AB8573",
"n. c #AD8A73",
"m. c #AD8D7B",
"M. c #A58677",
"N. c #B38C74",
"B. c #B98C74",
"V. c #B48E79",
"C. c #B48975",
"Z. c #B49276",
"A. c #B4927B",
"S. c #BA937B",
"D. c #BB9A7E",
"F. c #B89477",
"G. c #A1907E",
"H. c #C2977D",
"J. c #7F8583",
"K. c #868687",
"L. c #958986",
"P. c #989694",
"I. c #B49482",
"U. c #BA9682",
"Y. c #BB9B84",
"T. c #BB9D8A",
"R. c #B69889",
"E. c #A99B95",
"W. c #BB9D92",
"Q. c #A99183",
"!. c #BDA18C",
"~. c #BBA395",
"^. c #A2A39D",
"/. c #989DA0",
"(. c #A09EA1",
"). c #ABACAB",
"_. c #A7ABAB",
"`. c #BBAAA4",
"'. c #B4B3AD",
"]. c #BDBEBC",
"[. c #B7B6B5",
"{. c #C19785",
"}. c #C39D84",
"|. c #C39D89",
" X c #C4A28D",
".X c #C9A38C",
"XX c #C7A288",
"oX c #C5A492",
"OX c #C9A692",
"+X c #C6A994",
"@X c #CAAA95",
"#X c #C6A799",
"$X c #C6AA9B",
"%X c #CCAD9B",
"&X c #C8A39D",
"*X c #D4AD9C",
"=X c #CDB19E",
"-X c #D4B39E",
";X c #CAAEA1",
":X c #C3ADA3",
">X c #CDB2A3",
",X c #CDB6A9",
"<X c #CEBAAC",
"1X c #C6B5A8",
"2X c #D1B4A4",
"3X c #D2B6A8",
"4X c #D3BBAC",
"5X c #D8BBAC",
"6X c #C1BEBC",
"7X c #CBBCB3",
"8X c #D2BEB2",
"9X c #BEC1BD",
"0X c #C2C2BD",
"qX c #CCC4BD",
"wX c #C9C9BF",
"eX c #D3C1B5",
"rX c #D5C4B9",
"tX c #D5C7BD",
"yX c #C4C5C2",
"uX c #CBC6C3",
"iX c #C6C9C4",
"pX c #CACAC6",
"aX c #C6CAC9",
"sX c #CCCCCB",
"dX c #C9C7CA",
"fX c #D2CECC",
"gX c #D2CAC5",
"hX c #CED1CC",
"jX c #D1D1CE",
"kX c #CDCDD0",
"lX c #D2D2D1",
"zX c #D3D3D2",
"xX c #D3D8D2",
"cX c #D0CED1",
/* pixels */
"sXpXsXpXsXpXiXuX^.8 + , O = = = + O O O - , i 4 , , 9 a y -   O = O + . . = = , > J.hXhXhXlXsXjXjXlX",
"hXsXpXhXsXiXyXyXk - + , - , = , - + + 8 - ; = + O ; a a - = = , ; . . . .   . % i i _.hXhXfXjXlXjXlX",
"sXhXsXpXpXsXsXO.+ ; ; > ; 8 9 , 9 + ; ; , 8 ; , ; , i + = 4 - i i 8 - = . X X . . s k pXzXfXjXjXlXzX",
"sXsXpXgXsXkXK.% % , s h d 9 a s 9 ; 9 j a j W p 4 p 4 p s s l s 9 i i , = O O O $ $ i @.zXxXxXjXlXzX",
"sXjXsXgXdX'.> : - < q D b f h C d f V W H ) ) n b n b V f p g h s p i , - - @ . . = = k pXsXxXjXxXzX",
"sXjXsXpXsXO.= = = 4 H  .,. .P ( P _  .e.M.I.b.-.,.q.q.y...L D n C C Z b d 0 0 , + $ O y /.lXjXzXjXzX",
"sXlXuXsXsXE . : < b ..5.z.k.k.n.m.A.oXT.+X%X#X#X&X2X>X;X$XR.h.Q.M.w.] P K G D f 3 o = : #.xXjXzXxXzX",
"kXkXgXjXwXE = = 0 ) 1.i.x.x.S.XX+X@X$X=X$X1X4X7X8X7X8X7X<X,X<X%X@XOX{.N.s.t.w...n 9 ; , ! lXzXzXxXzX",
"sXsXsXsXdXK.$ < n } <.z.N.n.B.}. X=X=X=X2X4X4XeXeXeXeXeX<X1X1X,X=X X X!.!.Z.Z.R. .w 9 9 O.zXzXzXzXxX",
"dXlXsXuXcXK.= < m -.6.l.c.n.F.XX@X=X2X>X,X2XeXeXrXeXrXeXeX<X,X,X>X+X+X X!.R.A.Y.h.D s i O.sXlXzXzXzX",
"hXpXpXpXpXP.. 3 N ,.6.x.x.l.F.}.@X2X5X5X<XeX4XeXrXrXrXrXeX,XeX,X>X$X+X+X!.D.A.Y.M.H 9 , J.jXjXjXzXzX",
"sXpXsXhXpXP.= 4 H ,.6.x.N.N.V.|.@X-X2X5X<X4XeXeXrXrXrXrXeXeXeX<X>X%X+X+X!.!.Z.m.k.H 0 s K.hXzXzXzXxX",
"sXsXpXiXsX_.+ 3 D -.2.x.B.Z.A.|.+X-X3X3X4XeXeXeXrXrXrXrXeXeX1X<X,X;X%X$X!.Y.Z.N.h.D 0 8 '.jXjXhXzXzX",
"kXsXiXiXpXiXa 3 M  .6.x.F.F.D.}.+X%X>X3X4X5XeXeXeXrXrXrXeXeXeX,X3X>X%X+X XY.V.N.r.m 0 9 9XhXlXjXzXzX",
"dXkXhXsXsXyX! 3 m =.7.x.S.D.{.|.OX%X3X3X<XeXeXeXrXeXeXrXeXeXeX<X4X2X=XoX!.U.N.N.k.D 0 + yXsXjXlXzXfX",
"sXsXaXsXdXsXO.3 D -.6.z.F.F.{.XXoX=X3X3X<X4XeXeXrXrXeXeXeXeXeXeX4X3X>X+X XU.N.n.5.J 6 - [.hXsXjXfXzX",
"sXpXpXsXpXyXQ 6 K &.3.v.Z.D.|.|.+X>X2X4X4X4XeXeX4XrXeXeXeXrXeXrXeX3X>X#XoXY.F.k.8.Y 6 i aXdXfXfXjXjX",
"sXsXdXiXdXyXO.@ S _ <.n.Z.D.|.+X@X2X4X4X8XeX8XeXeXeXeXeXeXrX8X8X<X2X=X@XoXY.S.6.8. .@ i 6XsXhXsXjXhX",
"cXdXfXsXuX+.W 2 A I =.n.Z.!.{..X.X=X2X4X4XeXeX8XeX7XeXeX8X8X8X8X,X,X;X%X#X|.S.9.<.%.@ < w.`.pXhXhXjX",
"gXsXpXpXqX| ] 7 N S [ t.t.z.C.{.|.oX=X2X<X7XeXeXeX7XeXeX8X4X8X4X4X$X;XoXR.|.C.r.r.;.7 ^ m.&XgXpXjXjX",
"sXuXfXuXgX^ ^ w A x m A N L *.y.m.I.W.%X1X1X<XeX4X4X4X3X>X~.1X$X~.~.Q.u.%.>.t.` t.>.w h.h.$XgXfXjXhX",
"dXcXpXpXqX+.v v A 5 @ ; 3 4 g j m D ) q.M.W.=X%X2X=X$X#X#XW.E.Q.w.) n n N N w x w.4.K y.G.rXgXfXjXfX",
"sXpXpXdXuXL.^ N G c 3 3 4 4 4 3 5 6 q w N q.T. X@X@XT.y.^ A Z b f d 0 3 6 6 q L :.t.<.W.~.tXfXfXjXjX",
"sXsXpXuXdXE.q.B P K M f f v f 5 3 < 0 d w ^ h.A. X|.m.] z w 5 0 3 5 0 v Z ^ { u.7.7.r.#X`.fXpXsXsXsX",
"sXpXpXiXgXE.s.I ` &.P N 0 4 p < a 4 g f c z &.H.@X+Xn.U B z w f i a d f S P <.z.p.2.I.:X1XpXpXjXfXhX",
"pXuXaXiXgXE.m.I &.p.p.>.n m ..^ n ^ q.L _ K Y }.-X2XU.*.;.F / *.] ) q./ B >.S.}.C.u.U.,X7XpXsXsXfXsX",
"aXhXaXyXyX`.q.B &.a.B.a.T U 8.8.i.C.b.b.l.n.%..X5X4XD.F.U.A.i.g.d.i.i.1.-.U.}..XV.u.R.:X7XyXpXgXsXsX",
"sXiXaXsXyXgXw.B _ d.H.B.0.Y U 8.3.3.i.S.S.d.2.|.2X=X|.B.D.A.d.f.f.f.9.i.V. XOXXXn.>.R.:X7XiXpXhXhXlX",
"pXpXiX0XyXiXh.m S s.S.{.H.S.z.p.p.C.U. XB.2.i.@X5X2X{.B.Y.oX|.{.{.|.oXoX@X@X.X{.z.Y I.:XqXpXhXaXjXsX",
"uXpXyXiXyX0XE.C N >.B.}.}.}..X XoX+X+XY.l.2.z..X2X-XU.S.F.oX>X,X2X,X>X>X2X@X}.H.2.Y I.:XwXiXaXaXsXsX",
"iXfXiXiXyXyXP.S c %.i.H.}.XX%X+X$X@X%XD.9.8.n.@X*X%XF.F.N.XX3X4X4X4X4X4X=X+X|.d.;.' Q.:XwXpXiXlXsXsX",
"dXdXyXpX0XyXE.S c P 2.x.}.}.@X=X=X-XXXx.9.3.N.@X2X%XF.B.H.{.+X4X5X4X8X,X=XoXS.a.=.[ R.7X0XpXpXpXfXsX",
"yXyXyXyXyXyX6X+.c S >.s.B.}..X@X@X@X}.0.$.3.I.>X3X2XU.N.c.F.OX2X5X5X3X>X.X}.c.6.-.] '.iXyXpXpXsXhXsX",
"iXdXiX6XyX6X6X6Xf K ' 6.n.}.XX.X+X!..X9.$.9.x.@X*XoXD.F.l.N. X2X5X2X;X#X}.B.d.1.-.y.uXyXyXpXpXpXhXaX",
"yXyXdX6X].dX6XqXZ N / <.a.S.XXXX X+X|.8.8.9.B.*X-XXXH.Z.c.V. X*X2X*X$X XH.v.9.2...h.0XyXyXyXpXsXaXkX",
"yXyXyXiX].yXyX6XW Z ( ' 6.x.}.}.OX|.U.=.&.&.b.OX@X.Xl.x.N.N.oX X@X+XoX}.S.l.9.r.[ E.0XpXpXyXiXaXkXhX",
"yXyX9XyX0X9XyXyXX.b L P :.l.F..X}..XI.` B z S q.M.1./ I &.n.@X+X XXXH.D.B.z.6.e. .[.iX9XyXiXiXsXsXaX",
"yXyXyX6XyXyX].].L.0 A I %.5.H.}.XX}.A.,.x q 2 q z n P P <.Y. X X X XXXS.B.9.6.>.+.wX9X9XiXsXiXaXsXsX",
"yXyXyXyX].].].yX[.g D J K :.p.F.Z.n.V.b.4._ { L F 4.I.I.m.A.Y.T.Y.U.D.B.x.6.<.[ j.iX9XiXyXyXpXkXsXsX",
"yXyX].6X0XyX].].6XX.M K B &.6.z.k.n.k.k.k.p.r.r.&.1.T.U.M.N.Z.A.m.Z.F.n.z.8.=.L Q '.yXyXaXaXaXdXsXsX",
"0XyX].yX].6X0X6X0XO.p H n ( -.6.t.:. .1.7.t.n.C.1.1.b.d.0.0.5.>.4.y.N.x.9.;.} j % > ~ /.yXiXpXsXaXaX",
"0X].yXyXyX).#.k s o 4 b n L %.1.' B M S P { u.m.R.Q.b.*.` I n K P p.N.k.;.[ ) 3 : : % % l #._.yXaXsX",
"0X9X9X_.o.: X . . . o d b N %.6.0.z.*.U I U / / / { ` &.<.2.s.Y.U.n.N.7.-.] f 1 $ e : : : % & u y #.",
"'.@.k % $   . %   $ X - d f { 5.x.B.9.3.f.a.a.B.C.C.H.B.C.C.c.}.XXn.y.' ) W : $ & : : : , : % & * # ",
"9 . %   # # % .     # $ , q n ' 5.7.7.8.<.3.6.r.;.;.1.u.r.d.V.Z.n.5. .L H t : 1 & & e r u r e e & # ",
". %   # & % % O $ #   $ ; 4 0 H _ 1.6.<.&.&.&./ { %.*.;.y.n.N.N.5.-.D D | j : & # & e e > r u e e e ",
": # % & % * % % #   $ : y s ; d G { 2.p.d.d.b.D.S.}.{.U.T.U.A.t. .H h h @.R e # & & * u r r r r > > ",
"1 & # & * * % .   $ $ $ , E + - f K -.s.C.V.T.@X%X#X&X|.!.T.n.:.L w h h @.E > & & & e e e e e e e e ",
"& & & & e & & % # # # % - Q a < ; f P 5.M.A.Y.+X+X+X.X|.U.V.e.) q V G d K.R & & & * * e > e > > e > ",
"& & & & & & % % # # $ % : ! j i - 6 m ' 5.k.b.n.m.I.V.V.k.e.( z m W G m E.l e & & & & e e e > > > > "
};
