/* XPM */
static char *c191b232edfb4514a07e7954a789700c6i1ThujuPZSyMTiO[] = {
/* columns rows colors chars-per-pixel */
"50 50 251 2 ",
"   c #040401",
".  c #0A0501",
"X  c #070803",
"o  c #0D0A04",
"O  c #0D0B0A",
"+  c #130702",
"@  c #130B04",
"#  c #1C0C04",
"$  c #140D0A",
"%  c #1B0C0A",
"&  c #1C0703",
"*  c #1B120C",
"=  c #16130B",
"-  c #1D1412",
";  c #1F1810",
":  c #220C04",
">  c #2E0E03",
",  c #230E0A",
"<  c #250B06",
"1  c #360E05",
"2  c #231106",
"3  c #24130C",
"4  c #2C120B",
"5  c #2B1A0D",
"6  c #3C1A0D",
"7  c #35170B",
"8  c #231A12",
"9  c #2C1C14",
"0  c #281814",
"q  c #331C13",
"w  c #3B1E12",
"e  c #351B15",
"r  c #2D211A",
"t  c #282117",
"y  c #352115",
"u  c #3A2215",
"i  c #33221B",
"p  c #3A251A",
"a  c #3D291D",
"s  c #32281F",
"d  c #282628",
"f  c #3A2621",
"g  c #352922",
"h  c #3C2A23",
"j  c #352825",
"k  c #3C3228",
"l  c #302F32",
"z  c #451B0C",
"x  c #411D12",
"c  c #581B11",
"v  c #43291E",
"b  c #462518",
"n  c #52271A",
"m  c #572D16",
"M  c #672715",
"N  c #78371B",
"B  c #6B2F16",
"V  c #432C23",
"C  c #4B2C22",
"Z  c #422D28",
"A  c #463126",
"S  c #45332B",
"D  c #4B342C",
"F  c #4B362A",
"G  c #543429",
"H  c #58382C",
"J  c #4D3B33",
"K  c #493935",
"L  c #533B33",
"P  c #5A3B34",
"I  c #653B2C",
"U  c #653C35",
"Y  c #743A32",
"T  c #4D4439",
"R  c #5C4235",
"E  c #55433B",
"W  c #5C443B",
"Q  c #59473B",
"!  c #64443B",
"~  c #6B4C3E",
"^  c #67473A",
"/  c #734C3C",
"(  c #764638",
")  c #784A35",
"_  c #7C401E",
"`  c #5D4B43",
"'  c #564945",
"]  c #5B5044",
"[  c #524B48",
"{  c #644B45",
"}  c #6B4D43",
"|  c #654D47",
" . c #724C42",
".. c #794C46",
"X. c #63534A",
"o. c #6C534B",
"O. c #685145",
"+. c #745145",
"@. c #75544B",
"#. c #7A5649",
"$. c #6B5952",
"%. c #695955",
"&. c #765B54",
"*. c #78635B",
"=. c #6F605B",
"-. c #7C6B63",
";. c #843B1B",
":. c #8B3E22",
">. c #834E3D",
",. c #87543C",
"<. c #934C2C",
"1. c #924928",
"2. c #845A4C",
"3. c #8B5C4C",
"4. c #865647",
"5. c #955947",
"6. c #885B53",
"7. c #955D56",
"8. c #834D4D",
"9. c #9A634B",
"0. c #94634B",
"q. c #8C6253",
"w. c #8C695C",
"e. c #856458",
"r. c #946555",
"t. c #9C6A54",
"y. c #93655B",
"u. c #9C6C5C",
"i. c #976758",
"p. c #946C59",
"a. c #A4664B",
"s. c #A26B54",
"d. c #A46E5B",
"f. c #A76757",
"g. c #A4735D",
"h. c #AB755D",
"j. c #A97559",
"k. c #B6795C",
"l. c #B36F56",
"z. c #846B64",
"x. c #996C63",
"c. c #887369",
"v. c #9C7363",
"b. c #957669",
"n. c #9A7769",
"m. c #8A7A75",
"M. c #9B7E73",
"N. c #947B74",
"B. c #A96665",
"V. c #A37563",
"C. c #AC7B65",
"Z. c #A57B6B",
"A. c #AB7C6B",
"S. c #A87868",
"D. c #B47B63",
"F. c #B77A68",
"G. c #A27D72",
"H. c #A27F79",
"J. c #B57972",
"K. c #C67A66",
"L. c #BF805F",
"P. c #9A837A",
"I. c #89827C",
"U. c #AE806A",
"Y. c #A7816E",
"T. c #B4836C",
"R. c #BD856C",
"E. c #BD8668",
"W. c #A38275",
"Q. c #AB857C",
"!. c #AA8778",
"~. c #B48473",
"^. c #B3847C",
"/. c #B58A7C",
"(. c #BB8C7D",
"). c #BA8876",
"_. c #B5927C",
"`. c #C38A6D",
"'. c #C88669",
"]. c #C28575",
"[. c #C38C72",
"{. c #C38C7C",
"}. c #CA8A73",
"|. c #CC9375",
" X c #C3917E",
".X c #CB927C",
"XX c #C79376",
"oX c #D2967B",
"OX c #D39879",
"+X c #D48C73",
"@X c #9D8C86",
"#X c #9B989A",
"$X c #8B8C90",
"%X c #A58B82",
"&X c #AC8C83",
"*X c #A98785",
"=X c #BE8E82",
"-X c #B58B85",
";X c #AD948B",
":X c #A89289",
">X c #BC9384",
",X c #B3938B",
"<X c #B8978A",
"1X c #B89C93",
"2X c #AE9A96",
"3X c #BBA496",
"4X c #9F9EA6",
"5X c #A2A4AA",
"6X c #A1A0A6",
"7X c #BBB5B7",
"8X c #9FA3A6",
"9X c #C58E83",
"0X c #C39383",
"qX c #CC9484",
"wX c #CB9C85",
"eX c #C4968B",
"rX c #CB9B8C",
"tX c #C9988B",
"yX c #D39683",
"uX c #D39B84",
"iX c #D49B88",
"pX c #CC9D93",
"aX c #D19E95",
"sX c #D18F86",
"dX c #CCA28B",
"fX c #D4A28C",
"gX c #DAA48C",
"hX c #D6A184",
"jX c #C3A295",
"kX c #CCA293",
"lX c #CEA599",
"zX c #C4A99D",
"xX c #D2A294",
"cX c #D2A59B",
"vX c #DBA798",
"bX c #E1AA94",
"nX c #C9AEA3",
"mX c #D8ACA2",
"MX c #D3B2A4",
"NX c #C9B5AB",
"BX c #B8BCC5",
"VX c #BEC4CC",
"CX c #CFD5DB",
"ZX c #E0DEDF",
"AX c #CDD9E3",
"SX c #D6DCE7",
"DX c #D8E2ED",
"FX c #DCE3F3",
"GX c #FCFDFF",
"HX c #F4FBFE",
"JX c #EAEBF1",
/* pixels */
"= - - - . . & & < < & % & % 3 0 4 i h A a A A F a v V V v b A G Q J T d l VXGXGXGXHXCXSXDXSX6Xd . O ",
"- - 0 % $ + + & & < + & & , 4 e e C V F E Q A y u v v b p p p y F h k K [ 7XGXGXGXHXCXAXDXSX5Xd O O ",
"; 3 8 % @ + + & % & % % & 4 p p p V A A h Z a a a a u p a a y p y 9 5 f k #XJXGXGXHXAXAXDXCX5Xd O O ",
"* 3 4 , % % & < < < % % - 0 h j p f S h y i g f f Z i i y p 5 t 8 0 y p k K NXJXGXHXAXAXDXDX5Xd O O ",
"x x n n b z z 1 1 1 < , g j j j d s g g g i 9 e f Z C S V a y i i 8 5 q f h -.ZXJXJXAXSXFXDX8Xd $ O ",
"c B N ;.N B M c c c z e e i j j g i g h g q i f L } o.^ R H C u a f 5 q S k K 7XJXDXCXAXFXSX5Xl O $ ",
";.:.<.1.:.N B M M c b v u e a j f p A S A G W !  .&.#.} #./ G n G H C x L V D S I.CXVXCXFXDX5Xd O = ",
":.1.<.1.;.N M c c n x q S p f f F A H R } } e.n.G.Z.e.2.W.n./ P ../ ^ H P V C G A [ $XVXDXAX5Xd O O ",
";.:.1.;.B m 6 z 6 x , 9 h i A P ^ G } +.! #./.^.>X(.U.T.T.U.2.) 0.) / ^ R v S { D j [ 4XCXSX6Xd O O ",
"M N B c z > < > > e i 9 e F H / ..H p./ ) A.W.(.(.(.R._.T.U./ 3.0.,.4.^ ~ F Z $.` K K =.#XAX4Xd O o ",
"z m m 7 : + $ % 0 j r j G H 8.3.( +.p.I Z./.^.>X(.0X{.)._.g.0.I 0.0.0.) / R J E &.' K ` %.NX#Xd o o ",
"> 7 5 2 + $ $ % - k 9 Z G / u.t.( i.q.q.>X0XeXeXqX0X X XXXY.0._ 0.L.L.a.2.P } i %.| W X.X.I.#Xd $ $ ",
"@ @ # @ + $ % % 0 h f V U >.h.g.0.~.p.^.pXpXlXpXkXtXrXtXdXwXY.U._.OXL.`.U./ &.S D &.P P Q O.-.j $ $ ",
". o + . . $ , % j Z V C / 0.9.T.U.T.eXtXeXeXpXlXkXkXkXrXxXxXdXwX XOXOX|.E.4.*.X.V { S G L C $.g $ $ ",
"  X . . . O % , j h f C s.s.D.R.[..X X9XpXeX>X0XtXeXpXxXrXrXdXdXOXXXOXOXXXj.e.o.i | L D S J O.A * $ ",
"X X X . + + 3 g 9 0 V ^ t.R.].].R.).{.9XeXeX0XeX0X0X>XeXrXwXwXwXdXdXOX|.XX).2.@.f j K K J G *.H 3 = ",
". . . . @ % t r 3 v m ,.j.'.E.R.).{.=X0XeXeX9X>X=X=X9XeXtXiXtXwXdXhXOXOXOX_.p.#.T t T 5 R p o.T ; $ ",
"O .   . @ ; t 9 9 G R a.k.E.R. XqX{.tXrXtXeXeX=XeX-X9XpXtXtXxXfXdXOXgXOXOXE.U.*.T T J p J A v E ; o ",
"    . . o $ 0 q f n ) a.l.`..XqXrXrXrXrXpXaXaXeXaXaXmXaXkXkXxXxXfXgXhX|.OX`.U.q.{ ' X.a f A 9 | 8 X ",
"  .   X o = i f p G ,.s.L.{. X0X0XrXtXaXaXmXmXcXmXaXpXpXxXcXcXcXdXgXhXOX|.`.U.p.} ` $.S w V 0 K t o ",
"X   . $ = ; 9 i J R ,.a.k.U.n.v.V.G./.pXtXlXmXpXxXlXlXlXlXjXlXkXdXdXhXOX`.XXC.p.@.| ` D h y 0 S g . ",
"      . @ = y S Q ~ 9.,.0.0.t.p.4.2.u.^.=X=XpX0XlXkX>XZ.x.n.!.0X0X XOXXXL.[.U.w.e.o.%.h a 5 q Z g . ",
"    . O @ 5 s J E +.9.,.9.d.t.d.v.S.x.3.r.).xX{.).v.r.2.2.3.i.Z.T.~.E.E.E.E.F.q.z.&.&.L y a u V f . ",
"      . # 5 V Q E / ,.a.5.5.a.9.r.i.r.u.r.J.tX{.V.4.r.u.u.V.S.S.v.V.j.E.E.XX~.2.z.&.` W a L C V f + ",
"      . @ 8 A o.W ^ 9.s.>.( H R [ l D  .4.F.9X).0.3.3. .o.' &.6.3.r.i.h.k.`.`.t.e.*.W { A R H G i + ",
"      O @ 9 Q } O./ 9.l.<.) ( 7.z.{ @.#.4.S.~.A.3.r.8...%X$.D } I >.5.9.E.'.R.j.#.&.o.L Q Q ~ F v # ",
"      O $ 9 L R O./ 9.l.a.a.5.>.8...3.7.i.S.A.S.y.6.7.7.6.6...8.>.5.9.k.'.L.L.j.z.&.*.{ S P &.! L < ",
"    O   % 9 f L O.~ 9.L.k.a.a.a.f.9.5.7.d.F.{.F.d.u.7.7.y.f.B.f.t.d.F.oX+X'.E.g.b.e.c.*.E J } } W 2 ",
"    X o $ 8 f Z ` w.t.`.}.K.F.F.C.~.C.B.F.K.K.'.k.t.g.V.B.S.A.V.d.D..XgXOX'.E.V.W.@X*.&.K J D &.Q 3 ",
"      o @ * i i X.N.t.XXoX.X].{.].J.].l.J.K.}.+X'.'.R.J.^.(. X[.{.qXiXgXgX`.j.V.W.N.o.` K S S E L # ",
".     X $ * * i X.n.9.+XuXyXyX{.sX].}.D.].9X'.+X'.l.}.sXsXsXyXyXgXiXfXfXOX|.F.v.W.N.&.{ Q h C R g @ ",
"      X o = # 5 P G.s.}.oXoXqXsX.X}.k.D.K.sXyX+X+X'.F.sXaXaXiXgXvXiXiXfXoX`.D.S.&XM.o.! L Z D { 9 . ",
"      X O $ - * Q M.s.}.|.|.iXyX9XsXl.l.K.eX(.J.K.K.K.F.cXcXaXbXbXgXiX.XXXk.D.T.1Xe.o.P U C V S % . ",
"        o $ % - J b.t.'.OX|.yXiXrX{.f.4.B.J.J.4.5.f.f.{.=XvXbXbXbXiXfXiXXXh.s./.jXM.@.#.^ C V 9 .   ",
"        . $ $ % K b.t.}.'.oXyXqXqX~.i.7.U 3.4.4.y.6.x.{.{.qXvXbXvXgXgXyX[.g.V.dXMX!.~.3.w.b 4 : .   ",
"X       . @ = * S P.t.R.}..XyXtX).v.2.H G ^ ~  .U 2.8.y.9X{.aXxXfXgXoXuXT.U.(.1XMX/.k.j.R u p 2     ",
"      X X . $ % K !.r.E.[..X0X(.7./ n G P P { G C H ( ( u.^.0XfXwXyXuXoXT./.lX<XMX).'.D.z u w #     ",
"        X o $ % S %Xv.U.T.F.~.v.#.#./ ~ ....6.P U I ^  ./ 2.A.tX X X X XU.>XkXjXMXY.R.5.z v 7 2     ",
"    X X   . + % g ;XY.g.C.V.y.6.&.....8.6.7.B.8.U ..6.&.+.2.q._.9X(.0X/.!.>X3XnXkX~.0X( > w y 2     ",
"      X X   O $ s P.!.t.g.u.w.@.8...P P P U ..Y Y 8.y.x.i.q.e.x.~.Z.(.>X!.>XdXMXkX!.p.z 6 6 w 2     ",
"X     X   X o @ 8 P.!.W.!.W.&./ #. .>.5.B.B.B.J.B.x.x.6.&.+.#.z.v.n.!.!.>XjX3XMXzXN.e 4 4 w w : .   ",
"    X   X X X o t I.,X!.<XW.e.+.q.v.A.B.J.J.^.-X^.J.S.g.v... .e.n.n._.>X<X<XNXnXnXe.V e b w w ,     ",
"            o $ 8 c.;X,X!.Y.c.n.v.u.i.u.x.v.x.n.H.H.Y.n.Z.r.@.x.W.n.<X,X<XjXMXNXnXW 4 4 7 w u :     ",
"            X o = *.1X;X2XI.P.W.g.r.v.v.x.H.b.x.n.x.Y.n.~.x.&.z.z.P.<X>X1XzXNX3X1XV 7 > > 6 6 3     ",
"    X X     X o $ ] 2X&XP.I.P.N.v.n.v.n.H.*Xn.M.M.x.Y.Y.n.H.e.%.*.P._.;X3XNX3XzXQ.C 4 > 1 6 6 2     ",
"X         X X o o A :X%Xm.c.@X:X:XW.!.Q.^.eX-X-XQ.>X!.W.x.c.c.` *.I.:X_.;XnXnXzXN.} 7 > > z p 2     ",
"    X   X X X @ t T P.!.*.I.:X:X:XQ.H.-X^.^.=X-X-X&X&Xb.c.%.-.%.E z.M.P.:X3XjX<Xe.R ! > > 6 6 2 .   ",
"    X   X X o k T X.c.:X*.c.@X:X*X*XQ.^.-X-X,X<X,X;XW.c.-.X.%.[ h o.M.b.!.3X3X!.w.G } 6 > x u 4 .   ",
"  X       o k Q ] ] -._.I.*.I.P.2X2X;X<X,XQ.*X*X2XN.m.z.-.=.X.T g %.m.N.,XdXXX).&.T Q T > 6 x 5 X   ",
"  X   X t T X.] Q Q $.I.P.c.c.I.2X3X;X;X&XW.Q.*XN.c.-.&.=.=.X.[ k *.I.P.;X_.E.E.~ T T X.7 b z 2     "
};
