/* XPM */
static char *_7c1d0ad02d04b2bc1cddea898ef991cMwoZISn9JTo1qVwl[] = {
/* columns rows colors chars-per-pixel */
"50 52 248 2 ",
"   c #040402",
".  c #0B0502",
"X  c #060A04",
"o  c #0B0A05",
"O  c #050609",
"+  c #0C0C0A",
"@  c #060909",
"#  c #140C04",
"$  c #1B0C03",
"%  c #120E0A",
"&  c #190A05",
"*  c #0E110B",
"=  c #141206",
"-  c #1B1304",
";  c #13120C",
":  c #1B140C",
">  c #1B190D",
",  c #1E1A07",
"<  c #1B1512",
"1  c #1C1B13",
"2  c #181512",
"3  c #230D02",
"4  c #290E02",
"5  c #2A0803",
"6  c #241203",
"7  c #2B1204",
"8  c #24150B",
"9  c #2B150B",
"0  c #221B0C",
"q  c #2C1C0C",
"w  c #271A04",
"e  c #341A0C",
"r  c #3B1B0B",
"t  c #361504",
"y  c #231C12",
"u  c #2A1C13",
"i  c #221B18",
"p  c #341D11",
"a  c #1F2113",
"s  c #39210D",
"d  c #232215",
"f  c #2B2314",
"g  c #24231B",
"h  c #2A241A",
"j  c #2C2917",
"k  c #322314",
"l  c #3A2414",
"z  c #342B1B",
"x  c #3B2C1B",
"c  c #362419",
"v  c #3A321C",
"b  c #29220F",
"n  c #342E22",
"m  c #3B3427",
"M  c #2B2B22",
"N  c #441C09",
"B  c #581F0C",
"V  c #4A230D",
"C  c #57250A",
"Z  c #442513",
"A  c #452A14",
"S  c #4C2B16",
"D  c #492A18",
"F  c #572B15",
"G  c #49321B",
"H  c #5B351B",
"J  c #682D18",
"K  c #6A3518",
"L  c #773819",
"P  c #6E290B",
"I  c #483929",
"U  c #593A26",
"Y  c #6B3C22",
"T  c #623923",
"R  c #793E24",
"E  c #7C431C",
"W  c #4A422A",
"Q  c #564937",
"!  c #5C533B",
"~  c #4F492F",
"^  c #68452A",
"/  c #7B4B2C",
"(  c #764526",
")  c #7C522D",
"_  c #6A4934",
"`  c #754C34",
"'  c #6B5339",
"]  c #785538",
"[  c #5D5242",
"{  c #675A47",
"}  c #795745",
"|  c #74654E",
" . c #746453",
".. c #796B57",
"X. c #6D614E",
"o. c #863B19",
"O. c #973819",
"+. c #803E26",
"@. c #87431C",
"#. c #95461B",
"$. c #844324",
"%. c #874A28",
"&. c #9A4B26",
"*. c #9B4D2C",
"=. c #934A26",
"-. c #89582C",
";. c #9A532C",
":. c #97552B",
">. c #8A4A31",
",. c #845234",
"<. c #895737",
"1. c #975936",
"2. c #914B31",
"3. c #A84C2A",
"4. c #A3542B",
"5. c #AB5D33",
"6. c #A45A35",
"7. c #B45B36",
"8. c #B7492C",
"9. c #88613A",
"0. c #9B653B",
"q. c #AC653C",
"w. c #A6653A",
"e. c #B2623B",
"r. c #B7673C",
"t. c #A3612D",
"y. c #A04C1D",
"u. c #C84E36",
"i. c #C1663A",
"p. c #8A5B44",
"a. c #9B5F40",
"s. c #AB5E44",
"d. c #896546",
"f. c #986747",
"g. c #986D53",
"h. c #97765A",
"j. c #846C50",
"k. c #AA6945",
"l. c #B46C43",
"z. c #B86947",
"x. c #AA7449",
"c. c #BC744C",
"v. c #B77347",
"b. c #AC7354",
"n. c #A77A58",
"m. c #BC7A54",
"M. c #B77855",
"N. c #877865",
"B. c #9A7F67",
"V. c #A67C62",
"C. c #C6794D",
"Z. c #C37D54",
"A. c #C47C5B",
"S. c #C97A56",
"D. c #C9724F",
"F. c #BC865F",
"G. c #AF835E",
"H. c #978778",
"J. c #8E846E",
"K. c #AB8567",
"L. c #B88A66",
"P. c #A28B76",
"I. c #A3937E",
"U. c #BC9779",
"Y. c #BF936F",
"T. c #CB845B",
"R. c #C78359",
"E. c #D4895B",
"W. c #C0814E",
"Q. c #CD8B62",
"!. c #C78765",
"~. c #D38B64",
"^. c #D38C69",
"/. c #D98B65",
"(. c #CE926B",
"). c #D4926B",
"_. c #DB936B",
"`. c #DA9568",
"'. c #DB9A75",
"]. c #DB9B7B",
"[. c #D69776",
"{. c #C88F75",
"}. c #E49D79",
"|. c #E3976E",
" X c #DDA17C",
".X c #E4A27C",
"XX c #9A8E81",
"oX c #A89A87",
"OX c #B49E89",
"+X c #B8AA98",
"@X c #B0A48A",
"#X c #BDB0A3",
"$X c #D79E83",
"%X c #DCA486",
"&X c #C8B49E",
"*X c #CFA891",
"=X c #E3A484",
"-X c #E7A888",
";X c #E4AE95",
":X c #E9B39B",
">X c #F4B08E",
",X c #CBBCAD",
"<X c #C5B5A7",
"1X c #D5BDA8",
"2X c #CCBCB8",
"3X c #EBB8A2",
"4X c #DACDBD",
"5X c #D5C7B6",
"6X c #D0C2AE",
"7X c #E4CDB9",
"8X c #EAC7B0",
"9X c #DBCCC4",
"0X c #D7C7C6",
"qX c #DED3C7",
"wX c #DACAD4",
"eX c #E4CEC2",
"rX c #E4D4C4",
"tX c #EAD4C6",
"yX c #E3D5CB",
"uX c #EAD7CA",
"iX c #ECDCCD",
"pX c #E5D9CA",
"aX c #F0DBC8",
"sX c #E2D5D3",
"dX c #E6DCD4",
"fX c #EBDDD3",
"gX c #E6DCD9",
"hX c #EADFDA",
"jX c #E0D1D8",
"kX c #F0DFD3",
"lX c #ECE0CE",
"zX c #E7E1CE",
"xX c #EDE3D4",
"cX c #EDE9D6",
"vX c #ECE4DA",
"bX c #EEE9DB",
"nX c #E7E1D4",
"mX c #F1E3D4",
"MX c #F1E5DB",
"NX c #F2EBDC",
"BX c #F1E9D6",
"VX c #F1E6D2",
"CX c #EADEE2",
"ZX c #EEEAE2",
"AX c #EDE4E1",
"SX c #F2ECE2",
"DX c #F2EBE7",
"FX c #F5F1E5",
/* pixels */
"DXDXZXDXAXvXvXvXnXsXqX,XXX{ j * @ O + @ X + % +   o ; ; n m H.#X2X2X2X0X0XwXjXjXjXsXyXdXdXsXgXgXgXdX",
"ZXZXbXSXbXZXvXdXdXdX5XJ.Q y * o X X       +   + @   X ; = z W +X<X<X0X2X9XwXyXyXyXyXpXyXnXsXnXgXgXgX",
"SXNXNXNXvXAXvXgXnX0XoX[ y o % + X ; * * @ X X @ O @   o X * M ..<X<X5X,X0XeX9XyXyXdXsXdXsXgXgXgXvXnX",
"SXNXFXNXZXAXvXvXsX6XH.W ; + X % ; ; ; ; > 2 a * O @ @ + > > a Q oX+X<X,X4XeX0XyXsXjXgXgXAXgXvXnXdXnX",
"SXNXNXAXZXvXgXgX4X+XQ j d 1 1 > 1 1 g M g a a a 2 ; X o * ; a d [ X.Q {  ...oX#X5X9XqXnXnXdXnXdXxXgX",
"DXDXDXZXDXvXgXyX+X! j a a a j d g g g d a > > > ; g > X ; ; * o ; = 0 - , f z ' H.+X5XqXqXdXvXgXdXnX",
"SXDXDXZXNXBXfX<X .z > 1 d a a b a d M d a a 1 ; a d i > ; ; o o   * * 2 ; - 0 j m { XX<XqXsXAXCXAXgX",
"SXSXDXbXcXVX5XN.n h g g d n m j m j a a > g 2 * > ; h > g 1 * X X X * ; * > = 0 j W ..oX,XqXsXvXgXvX",
"DXDXDXNXxX4XJ.m b 0 > 0 : : : : d h d o ; ; % . o ; i < i 1 2 X = ; i i i g = 0 , v ~ | +X9XsXvXvXvX",
"DXFXvXxXuX+XI c u 0 y : g M y o X = + . . . @ O X X O % . # ; o o X 1 i i i y i j , b W ..+X4XdXnXnX",
"NXvXNXxXrXH.I h u % # % ; 1 i 2 o     . + + % + % + # & . . O @ @   . % + # % # = = a j ! J.6XpXgXAX",
"NXbXnXvX7X| m u ; # % % @ + # & # < 8 3 3 4 p p N F T H D 3 . O O O     X +     X * ; , v I.+XyXnXAX",
"SXZXAXnX#XG z > +   ; 1 O . 3 5 t N B R ,./ R >.k.m.A.R.b.,.Z & .       + ; o @ X + * > b { #X9XdXnX",
"SXZXvXdX .f z < X X ; > # $ p ` f.b.L.{.$X[.{.$X].[.).).Q.M.2.F $ .       @ + X X X o % , z OX4XgXAX",
"SXSXcX6XW 8 y <   X % # 3 D ` b.!.!.[.=X=X=X$X$X%X$X$X[.(.F.x.>.Z 6 .     @ * * + % # # , b J.4XqXnX",
"bXNXlX<XI 8 : %   O . $ S / k.M.R.~.^.'.]. X.X=X].[.).).Q.R.v.w.( Z & . % + + ; + . # % = j ! 5XnXvX",
"NXcXxX6XI : % . . # . 9 T <.w.c.m.Z.Q.~.`.`.].].).E.R.R.F.r.r.w.1.T t . % + + ; 2 % o o : b { &XdXvX",
"SXNXlX#Xy : + o 0 # # k ^ <.k.q.c.Z.R.R.T.T.(.[.).(.`.'.`.W.v.x.0.) A 9 : X = ; 2 % # ; = y N.1XxXvX",
"SXcXlXH.: . + @ h 0 h l ^ 1.k.l.E.'.'.}.].].].=X%X=X%X-X.X X(.Q.w.-.H q d X o + 2 ; 2 o ; y | 5XdXnX",
"ZXcXrX..$ # o ; m n f G ` 1.x.T.(.%X%X;X:X:X:X;X:X3X3X:X;X*X%X XG.1.H A 6 #   @ + % ; ; ; > ~ qXfXxX",
"SXcX4X{ $ #   ; i 0 c U ] f.k._.-X;X;X:X3X3X;X:X;X:X%X;X{.k.b.!.!.b.Y G $ .     . o ; ; = - v 4XnXvX",
"ZXxX6XI # # o + ; < c ^ <.b.M.!.!.0.>.b.[.%X=X=X^.$Xz.$.P @.=.1.b.b.<.D 8 .         % # , 0 Q 5XxXxX",
"bXdX&Xl . . X O . # l ^ f.n.1.1.1.1.l.;.1.Z.^.=XA.D.*.A.S.z.A.A.1.1.<.S k .       O o y 0 I @X9XxXvX",
"ZXvXOXe & .   + O . l _ g.1.%.b.!.A.l.~.R.5.^.[.^.1.m.A.z.k.z.k.;.L ( S 9 .       O + # w { qXfXcXxX",
"cXzXH.k $ . O + . # G _ <.L 2.>.Y R s.7.D.#.v.~.A.3.z.z.c.g.t U J J $.H p o     O o o - b ' rXnXcXcX",
"NX4XQ u # + O . o . G _ ,.%.P 2.Z T ^.4.7.&.C.T.C.7.#.7.7.D.2.a.$.C $.( l #     O # # m X...6XmXxXxX",
"aXH.9 ; %     X . . A p.f.=.:.c.A.A.v.7.6.z.l.C.C.4.&.4.D.S.A._.c.:.;.<.A : . . . o - { 6X,X9XfXvXcX",
"7XQ o o o O   .   & A g.M.1.k.S.E.E.E.r.C.e.5.R.~.e.#.k.A.=X=X^.E.t.4.0.U $ #   o # = { 4XiXfXMXvXNX",
"1XU o + o X X . . 8 U V.x.w.c._.=X=X^.T.!.r.A.|._.T.&.5.S./.=X[.E.W.t.-.^ $ . + o # 0 N.4XxXBXMXNXNX",
"5XX.0 . % # . % y 7 ^ b.M.c.E.|.}./.^.|.|.A.].-X:X=XM.=.=X/.S._.`.E.W.w.^ 6 $ . X : j +XqXxXMXSXbXAX",
"uX+Xc 8 8 % ; % n 3 ` n.l.R.`.|.`.E.'.>X~.A.{.:X8X=XM.s.S.>X|./.`.~.F.x.] 6 $ < o y [ 4XnXcXcXbXNXbX",
"BXrX..p u y % # c 3 U n.c.T./.`./.}.-X-X!.7.5.S.E.c.+.z.D.>X-X^.~.~.m.x.^ 7 8 8 : : N.iXvXbXbXZXbXbX",
"NXxX1X| x : o $ A N C g.L.A.~._.}..X>X/.z.z.s._.[.{.s.D.s.}.>X.X).Q.v.1.` w e 8 # y XXgXxXbXbXZXSXNX",
"vXBXaX+XI : . # U ` N a.M.c.~.^.}..X`.i.z.3.*.6.A.k.o.O.7.D..X-X_.T.w.,.^ 9 q 9 # u H.xXxXcXSXMXAXvX",
"SXNXBXrXB.c - $ ^ / C p.x.c.T._.|./.r.r.&.=.4.#.5.o.L =.&.l.l.|.~.m.k./ F 8 c u 6 z H.iXBXkXMXSXMXMX",
"vXNXBXmXrXH.x w Y ` H ,.k.l.C././.r.#.y.5.7.D.D.S.S.z.&.3.4.*.q.E.Z.w.( V p p 9 b  .+XaXBXMXMXMXMXBX",
"SXcXBXBXlX7XP.A ^ G.K L 1.w.c.E.v.O.t.r.i.8.u.u.u.u.O.3.5.5.:.:.q.v.w.L S p u 9 W @XtXfXvXMXbXMXMXvX",
"cXSXcXlXBXVX6X) U h.F C ,.1.q.l.;.4.e.y.O.8.i.S.D.D.7.O.O.*.4.&.#.r.w.( N e 3 f H.6XlXMXvXvXNXSXcXcX",
"SXcXNXcXcXpX6XP.| ' S S K @.:.;.@.=.&.r.C.7.r.:.*.o.=.O.&.;.P $.%.%.-.J r 9 $ x 5XpXmXMXxXvXNXvXcXvX",
"SXSXcXbXcXcX7X7XK.s A Z F J @.( L C @.:.:.@.@.=.6.o.L $.E %.$.C E K Y V r 9 $ Q rXcXhXMXvXcXBXcXBXxX",
"NXNXBXBXNXvXpX7Xh.G A D S C H H V H E E E ) -.&.6.%.K E ( K ^ C V F S r p 8 $ ..dXgXvXBXmXmXvXvXvXvX",
"BXSXBXSXcXcXnX&Xh.A A V N t N N ) ) E ^ E E @.-.@.:.L E E E ^ ^ V N r e 8 8 - H.fXhXhXMXvXxXvXvXxXxX",
"NXbXBXBXcXBXrXOX' j.' A r r N _ ) 0.0.9.-.E t.t.;.:.-.%.^ ) d.^ Z t 5 9 8 # q +XiXkXMXMXvXhXMXBXxXxX",
"SXFXNXNXNXBX7X&X4X7XK.H s 7 s Y | ] 9.-.-.-.t.w.q.q.t.0.E ) d.d.S 4 & 3 : : ! 5XiXkXvXvXMXMXMXMXlXiX",
"cXcXNXNXNXBXkXkXfXtX&Xg.Z 4 s _ ] | ) 9.-.x.x.v.v.F.:.w.0.f.) ] D 7 # : . p @XtXkXkXhXvXvXvXMXmXxXxX",
"NXNXcXNXNXBXBXMXhXfXeX*X_ t A G H 9.) ) 0.x.0.G.F.F.x.x.n.n.9.' s 9 & & & Q eXiXkXkXmXvXxXvXmXmXxXxX",
"cXbXNXFXbXcXNXxXBXiXtX1X] r 7 G H ' 9.9.f.G.L.Y. XY.F.F.L.n.p.' I $ 8 & 3 oXtXuXiXkXkXMXxXcXmXmXlXcX",
"SXbXNXcXcXbXvXcXlXnXyXeXU.V 9 7 s ~ G.' G.G.U.{.*XY.L.G.Y.V.] D s 3 8 & ' 1XuXfXfXkXfXmXlXcXmXmXlXlX",
"bXNXMXBXcXBXxXxXxXiXuXtX&XT r 4 r U } g.V.K.{.OX$XB.U.V.B.} U 5 7 7 u & XXeXuXuXuXfXfXfXiXfXxXmXiXfX",
"ZXcXcXBXcXvXcXxXlXmXkXtX8Xp.F B F F Y g.n.V.L.h.d.} p.Y D 9 9 5 V J H 5 P.eXuXuXuXfXfXfXxXiXlXmXiXlX",
"cXvXcXmXBXmXfXmXiXiXaXtX3Xf.>.o.L J Y R / 1.d.2.$.L J C F B B J $.1./ 5 N.tXtXsXsXiXsXkXiXiXlXiXiXiX",
"cXcXmXmXMXxXkXmXiXkXuXtX3Xf.k.=.*.*.+.R 1.0.q.R.S.e.4.2.J P O.*.7.l.<.5 } eXtXtXuXuXiXhXaXiXiXxXiXaX"
};
